<svg id="Layer_1" data-name="Layer 1" xmlns="http://www.w3.org/2000/svg" viewBox="0 0 273.17 33.63"><defs><style>.cls-1{fill:#542e8f;}.cls-2{fill:#414347;}</style></defs><title>text</title><polygon points="20.34 6.75 20.34 2.6 1.84 2.6 1.84 33.02 6.27 33.02 6.27 18.91 18.28 18.91 18.28 14.73 6.27 14.73 6.27 6.75 20.34 6.75"/><polygon points="29.38 28.86 29.38 2.6 24.95 2.6 24.95 33.02 42.89 33.02 42.89 28.86 29.38 28.86"/><path d="M56.6,172.05a8,8,0,0,1-3.6-.73,5.74,5.74,0,0,1-2.27-2.13,10.38,10.38,0,0,1-1.32-3.62,27.87,27.87,0,0,1-.43-5.16,28.37,28.37,0,0,1,.43-5.2,10.43,10.43,0,0,1,1.31-3.62,5.7,5.7,0,0,1,2.28-2.1,7.86,7.86,0,0,1,3.57-.73,7.72,7.72,0,0,1,3.54.74,5.56,5.56,0,0,1,2.27,2.11,10.91,10.91,0,0,1,1.31,3.63,32,32,0,0,1,0,10.34,10.91,10.91,0,0,1-1.31,3.63,5.69,5.69,0,0,1-2.27,2.11,7.74,7.74,0,0,1-3.54.73M68.14,154a14,14,0,0,0-2.08-5,9.68,9.68,0,0,0-3.85-3.24,12.88,12.88,0,0,0-5.64-1.12A12.86,12.86,0,0,0,51,145.72,9.83,9.83,0,0,0,47.17,149a14,14,0,0,0-2.1,5A33,33,0,0,0,45,166.82a14.06,14.06,0,0,0,2.1,5A9.63,9.63,0,0,0,51,175.1a12.88,12.88,0,0,0,5.64,1.12,13.16,13.16,0,0,0,5.64-1.11,9.85,9.85,0,0,0,3.81-3.29,14,14,0,0,0,2.08-5,33.57,33.57,0,0,0,0-12.87" transform="translate(0 -142.59)"/><path d="M78.56,149.3h4.52a13.16,13.16,0,0,1,3,.29,4.05,4.05,0,0,1,1.74.82,3,3,0,0,1,.9,1.39,7.43,7.43,0,0,1,.32,2.34,8.93,8.93,0,0,1-.31,2.52,3.19,3.19,0,0,1-.9,1.48,4.13,4.13,0,0,1-1.76.85,13.22,13.22,0,0,1-3.07.3H78.6ZM88,162.7a10.44,10.44,0,0,0,1.7-.69,6.83,6.83,0,0,0,2.17-1.79,7.4,7.4,0,0,0,1.33-2.66,12.89,12.89,0,0,0,.44-3.55A11,11,0,0,0,93,150a6.67,6.67,0,0,0-2.11-2.81,8.58,8.58,0,0,0-3.34-1.51,19.32,19.32,0,0,0-4.36-.44h-9v30.43h4.43v-12.2h4.79l7.37,12.2H96Z" transform="translate(0 -142.59)"/><polygon points="109.66 6.67 109.66 2.6 97.35 2.6 97.35 6.67 101.28 6.67 101.28 28.93 97.35 28.93 97.35 33.02 109.66 33.02 109.66 28.93 105.71 28.93 105.71 6.67 109.66 6.67"/><path d="M118.51,149.34h2.86a16.21,16.21,0,0,1,4.65.58,6.21,6.21,0,0,1,2.87,1.78,7.85,7.85,0,0,1,1.62,3.33,27.49,27.49,0,0,1,0,10.77,7.72,7.72,0,0,1-1.64,3.33,6,6,0,0,1-2.88,1.76,16.61,16.61,0,0,1-4.6.55h-2.86Zm16.34,4a11,11,0,0,0-2.64-4.78,10.25,10.25,0,0,0-4.48-2.63,22.11,22.11,0,0,0-6.11-.76h-7.55v30.45h7.59a22.42,22.42,0,0,0,5.88-.69,10,10,0,0,0,4.5-2.52,11.25,11.25,0,0,0,2.75-4.76,24.63,24.63,0,0,0,.9-7.24,25.4,25.4,0,0,0-.84-7" transform="translate(0 -142.59)"/><path d="M146.23,163.14l4-11.89,4,11.89Zm6.44-17.95H147.9l-10.55,30.43H142l2.81-8.31h10.88l2.81,8.31h4.77Z" transform="translate(0 -142.59)"/><path d="M185,149.34h4.09a11.18,11.18,0,0,1,2.7.3,4.51,4.51,0,0,1,1.83.91,4,4,0,0,1,1.12,1.67,8.4,8.4,0,0,1,.41,2.86,10.8,10.8,0,0,1-.39,3.2,4,4,0,0,1-1.11,1.78,4.4,4.4,0,0,1-2,.91,14.49,14.49,0,0,1-3.15.29H185Zm12.21-1.69c-1.7-1.63-4.34-2.46-7.85-2.46h-8.78v30.43H185V165.44h4a17.21,17.21,0,0,0,4.63-.55,8.14,8.14,0,0,0,3.44-1.86,7.71,7.71,0,0,0,2.06-3.33,15.36,15.36,0,0,0,.65-4.71c0-3.22-.87-5.69-2.58-7.34" transform="translate(0 -142.59)"/><path d="M215.41,172.05a7.86,7.86,0,0,1-3.57-.73,5.81,5.81,0,0,1-2.27-2.13,10.38,10.38,0,0,1-1.32-3.62,27.86,27.86,0,0,1-.42-5.16,28.36,28.36,0,0,1,.42-5.2,10.38,10.38,0,0,1,1.32-3.62,5.67,5.67,0,0,1,2.27-2.1,7.86,7.86,0,0,1,3.57-.73,7.72,7.72,0,0,1,3.54.74,5.56,5.56,0,0,1,2.27,2.11,10.48,10.48,0,0,1,1.31,3.63,32,32,0,0,1,0,10.34,10.69,10.69,0,0,1-1.31,3.63,5.7,5.7,0,0,1-2.22,2.11,7.74,7.74,0,0,1-3.54.73M227,154a13.6,13.6,0,0,0-2.08-5,9.8,9.8,0,0,0-3.84-3.24,13.09,13.09,0,0,0-5.65-1.12,12.89,12.89,0,0,0-5.64,1.13A9.9,9.9,0,0,0,206,149a13.79,13.79,0,0,0-2.09,5,32.65,32.65,0,0,0,0,12.84,14.22,14.22,0,0,0,2.09,5,9.75,9.75,0,0,0,3.83,3.26,12.88,12.88,0,0,0,5.64,1.12,13.23,13.23,0,0,0,5.65-1.11,10,10,0,0,0,3.82-3.28,13.77,13.77,0,0,0,2.08-5A33.57,33.57,0,0,0,227,154" transform="translate(0 -142.59)"/><polygon points="237.37 28.86 237.37 2.6 232.94 2.6 232.94 33.02 250.88 33.02 250.88 28.86 237.37 28.86"/><polygon points="268.32 2.6 261.18 16.61 254.13 2.6 249.18 2.6 258.93 21.39 258.93 33.02 263.39 33.02 263.39 21.23 273.17 2.6 268.32 2.6"/><polygon class="cls-1" points="18.5 4.75 18.5 0.59 0 0.59 0 31.02 4.42 31.02 4.42 16.91 16.44 16.91 16.44 12.73 4.42 12.73 4.42 4.75 18.5 4.75"/><polygon class="cls-1" points="27.54 26.86 27.54 0.59 23.11 0.59 23.11 31.02 41.05 31.02 41.05 26.86 27.54 26.86"/><path class="cls-1" d="M54.75,170.05a7.68,7.68,0,0,1-3.56-.74,5.67,5.67,0,0,1-2.28-2.12,10.5,10.5,0,0,1-1.32-3.63,27.75,27.75,0,0,1-.42-5.15,28.36,28.36,0,0,1,.42-5.2,10.38,10.38,0,0,1,1.32-3.62,5.67,5.67,0,0,1,2.27-2.1,9,9,0,0,1,7.12,0,5.63,5.63,0,0,1,2.26,2.12,10.48,10.48,0,0,1,1.31,3.63,32,32,0,0,1,0,10.33,10.48,10.48,0,0,1-1.31,3.63,5.6,5.6,0,0,1-2.26,2.11,7.63,7.63,0,0,1-3.55.74M66.33,152a13.79,13.79,0,0,0-2.09-5,9.8,9.8,0,0,0-3.84-3.24,13,13,0,0,0-5.65-1.12,12.89,12.89,0,0,0-5.64,1.13A9.9,9.9,0,0,0,45.28,147a13.79,13.79,0,0,0-2.09,5,33,33,0,0,0,0,12.84,14.22,14.22,0,0,0,2.09,5,9.75,9.75,0,0,0,3.83,3.26,12.88,12.88,0,0,0,5.64,1.12,13,13,0,0,0,5.65-1.12,9.66,9.66,0,0,0,3.84-3.27,13.79,13.79,0,0,0,2.09-5,33.57,33.57,0,0,0,0-12.87" transform="translate(0 -142.59)"/><path class="cls-1" d="M76.71,147.3h4.53a13.16,13.16,0,0,1,3,.29,4.3,4.3,0,0,1,1.74.82,3,3,0,0,1,.9,1.39,7.42,7.42,0,0,1,.31,2.34,8.92,8.92,0,0,1-.3,2.52,3.19,3.19,0,0,1-.9,1.48,4.13,4.13,0,0,1-1.76.85,13.3,13.3,0,0,1-3.08.3h-4.4Zm9.41,13.4a10.54,10.54,0,0,0,1.71-.69A6.83,6.83,0,0,0,90,158.22a7.83,7.83,0,0,0,1.33-2.66,12.89,12.89,0,0,0,.44-3.55,10.62,10.62,0,0,0-.69-4.06A6.73,6.73,0,0,0,89,145.14a8.58,8.58,0,0,0-3.34-1.51,19.29,19.29,0,0,0-4.35-.44h-9v30.43h4.42v-12.2h4.8l7.37,12.2h5.28Z" transform="translate(0 -142.59)"/><polygon class="cls-1" points="107.82 4.67 107.82 0.59 95.5 0.59 95.5 4.67 99.44 4.67 99.44 26.93 95.5 26.93 95.5 31.02 107.82 31.02 107.82 26.93 103.86 26.93 103.86 4.67 107.82 4.67"/><path class="cls-1" d="M116.67,147.34h2.86a16.21,16.21,0,0,1,4.65.58,6.21,6.21,0,0,1,2.87,1.78,7.72,7.72,0,0,1,1.61,3.33,23.29,23.29,0,0,1,.53,5.33,22.59,22.59,0,0,1-.55,5.44,7.72,7.72,0,0,1-1.64,3.33,6.07,6.07,0,0,1-2.87,1.75,15.89,15.89,0,0,1-4.6.56h-2.86Zm16.34,4a11.16,11.16,0,0,0-2.64-4.78,10.14,10.14,0,0,0-4.49-2.63,22,22,0,0,0-6.1-.76h-7.56v30.45h7.6a22.43,22.43,0,0,0,5.88-.7,10,10,0,0,0,4.5-2.51,11.25,11.25,0,0,0,2.75-4.76,25.32,25.32,0,0,0,.9-7.24,25.78,25.78,0,0,0-.84-7" transform="translate(0 -142.59)"/><path class="cls-1" d="M144.38,161.14l4-11.89,4,11.89Zm6.45-17.95h-4.77L135.5,173.62h4.68l2.81-8.31h10.87l2.81,8.31h4.78Z" transform="translate(0 -142.59)"/><path class="cls-2" d="M183.12,147.34h4.09a11,11,0,0,1,2.69.3,4.51,4.51,0,0,1,1.83.91,4,4,0,0,1,1.12,1.67,8.17,8.17,0,0,1,.42,2.86,10.49,10.49,0,0,1-.4,3.2,3.85,3.85,0,0,1-1.1,1.78,4.4,4.4,0,0,1-2,.91,14.58,14.58,0,0,1-3.16.29h-3.54Zm12.2-1.69c-1.7-1.63-4.34-2.46-7.84-2.46H178.7v30.43h4.42V163.44h4a17.21,17.21,0,0,0,4.63-.55A8.18,8.18,0,0,0,195.2,161a7.86,7.86,0,0,0,2.06-3.33,15.05,15.05,0,0,0,.64-4.71c0-3.22-.86-5.69-2.58-7.34" transform="translate(0 -142.59)"/><path class="cls-2" d="M213.57,170.05a7.72,7.72,0,0,1-3.57-.74,5.74,5.74,0,0,1-2.28-2.12,10.93,10.93,0,0,1-1.32-3.63,27.75,27.75,0,0,1-.42-5.15,28.36,28.36,0,0,1,.42-5.2,10.66,10.66,0,0,1,1.32-3.62,5.63,5.63,0,0,1,2.28-2.1,9,9,0,0,1,7.11,0,5.59,5.59,0,0,1,2.27,2.12,10.67,10.67,0,0,1,1.3,3.63,31.42,31.42,0,0,1,0,10.33,10.67,10.67,0,0,1-1.3,3.63,5.56,5.56,0,0,1-2.27,2.11,7.72,7.72,0,0,1-3.54.74M225.14,152a13.79,13.79,0,0,0-2.09-5,9.65,9.65,0,0,0-3.84-3.24,14.7,14.7,0,0,0-11.28,0A9.75,9.75,0,0,0,204.1,147a14,14,0,0,0-2.1,5,34.86,34.86,0,0,0,0,12.84,14.06,14.06,0,0,0,2.1,5,9.67,9.67,0,0,0,3.83,3.26,14.79,14.79,0,0,0,11.28,0,9.78,9.78,0,0,0,3.85-3.25,14,14,0,0,0,2.08-5,33.57,33.57,0,0,0,0-12.87" transform="translate(0 -142.59)"/><polygon class="cls-2" points="235.53 26.86 235.53 0.59 231.1 0.59 231.1 31.02 249.04 31.02 249.04 26.86 235.53 26.86"/><polygon class="cls-2" points="266.48 0.59 259.33 14.61 252.29 0.59 247.34 0.59 257.08 19.39 257.08 31.02 261.55 31.02 261.55 19.23 271.32 0.59 266.48 0.59"/></svg>