<?xml version="1.0" encoding="utf-8"?>
<!-- Generator: Adobe Illustrator 23.0.1, SVG Export Plug-In . SVG Version: 6.00 Build 0)  -->
<svg version="1.1" id="Layer_1" xmlns="http://www.w3.org/2000/svg" xmlns:xlink="http://www.w3.org/1999/xlink" x="0px" y="0px"
	 viewBox="0 0 133.3 150" style="enable-background:new 0 0 133.3 150;" xml:space="preserve">
<style type="text/css">
	.st0{fill:#00599C;}
	.st1{fill:#004482;}
	.st2{fill:#659AD2;}
	.st3{fill:#FFFFFF;}
</style>
<path class="st0" d="M131.6,112.5c1-1.8,1.7-3.9,1.7-5.7V43.2c0-1.8-0.6-3.9-1.7-5.7L66.6,75L131.6,112.5z"/>
<path class="st1" d="M72.4,148.6l55.1-31.8c1.6-0.9,3-2.5,4.1-4.3L66.6,75l-65,37.5c1,1.8,2.5,3.4,4.1,4.3l55.1,31.8
	C64,150.5,69.2,150.5,72.4,148.6z"/>
<path class="st2" d="M131.6,37.5c-1-1.8-2.5-3.4-4.1-4.3L72.4,1.4c-3.2-1.8-8.4-1.8-11.5,0L5.8,33.2C2.6,35,0,39.5,0,43.2v63.6
	c0,1.8,0.6,3.9,1.7,5.7l65-37.5L131.6,37.5z"/>
<g>
	<path class="st3" d="M66.6,119.4c-24.5,0-44.4-19.9-44.4-44.4s19.9-44.4,44.4-44.4c15.8,0,30.6,8.5,38.5,22.2L85.9,63.9
		c-4-6.9-11.3-11.1-19.2-11.1c-12.3,0-22.2,10-22.2,22.2c0,12.2,10,22.2,22.2,22.2c7.9,0,15.3-4.3,19.2-11.1l19.2,11.1
		C97.2,110.9,82.5,119.4,66.6,119.4z"/>
</g>
<g>
	<polygon class="st3" points="111.1,72.5 106.1,72.5 106.1,67.6 101.2,67.6 101.2,72.5 96.3,72.5 96.3,77.5 101.2,77.5 101.2,82.4 
		106.1,82.4 106.1,77.5 111.1,77.5 	"/>
</g>
<g>
	<polygon class="st3" points="129.6,72.5 124.7,72.5 124.7,67.6 119.7,67.6 119.7,72.5 114.8,72.5 114.8,77.5 119.7,77.5 
		119.7,82.4 124.7,82.4 124.7,77.5 129.6,77.5 	"/>
</g>
</svg>
