<?xml version="1.0" encoding="utf-8"?>
<!-- Generator: Adobe Illustrator 23.0.1, SVG Export Plug-In . SVG Version: 6.00 Build 0)  -->
<svg version="1.1" id="Layer_1" xmlns="http://www.w3.org/2000/svg" xmlns:xlink="http://www.w3.org/1999/xlink" x="0px" y="0px"
	 viewBox="0 0 150 150" style="enable-background:new 0 0 150 150;" xml:space="preserve">
<style type="text/css">
	.st0{fill-rule:evenodd;clip-rule:evenodd;fill:#283593;}
	.st1{fill-rule:evenodd;clip-rule:evenodd;fill:#5C6BC0;}
	.st2{fill-rule:evenodd;clip-rule:evenodd;fill:#FFFFFF;}
	.st3{fill-rule:evenodd;clip-rule:evenodd;fill:#3949AB;}
</style>
<g id="surface1">
	<path class="st0" d="M71.1,1c2.4-1.4,5.4-1.4,7.8,0c12,6.7,48,27,60,33.7c2.4,1.3,3.9,3.9,3.9,6.6v67.4c0,2.7-1.5,5.2-3.9,6.6
		l-60,33.7c-2.4,1.4-5.4,1.4-7.8,0l-60-33.7c-2.4-1.3-3.9-3.8-3.9-6.6V41.3c0-2.7,1.5-5.2,3.9-6.6C23,28,59.1,7.7,71.1,1z"/>
	<path class="st1" d="M8.2,112.2c-1-1.3-1.1-2.5-1.1-4.1v-67c0-2.7,1.5-5.2,3.9-6.6C23,27.8,58.9,7.7,70.9,1c2.4-1.4,5.7-1.3,8.1,0
		c11.9,6.7,47.8,26.6,59.7,33.3c1,0.5,1.7,1.2,2.4,2.1L8.2,112.2z"/>
	<path class="st2" d="M75,25c27.6,0,50,22.4,50,50s-22.4,50-50,50s-50-22.4-50-50S47.4,25,75,25z M75,50c13.8,0,25,11.2,25,25
		s-11.2,25-25,25S50,88.8,50,75S61.2,50,75,50z"/>
	<path class="st3" d="M141,36.4c1.8,1.7,1.8,4.3,1.8,6.4c0,13.6-0.1,52.1,0,65.7c0,1.4-0.5,2.9-1.2,4L73.5,75L141,36.4z"/>
</g>
</svg>
