<?xml version="1.0" encoding="utf-8"?>
<!-- Generator: Adobe Illustrator 23.0.1, SVG Export Plug-In . SVG Version: 6.00 Build 0)  -->
<svg version="1.1" id="Layer_1" xmlns="http://www.w3.org/2000/svg" xmlns:xlink="http://www.w3.org/1999/xlink" x="0px" y="0px"
	 viewBox="0 0 110 110" style="enable-background:new 0 0 110 110;" xml:space="preserve">
<style type="text/css">
	.st0{fill:#FFFFFF;}
	.st1{fill:#E44D26;}
	.st2{fill:#F16529;}
	.st3{fill:#EBEBEB;}
</style>
<title>HTML5 Logo</title>
<path class="st0" d="M23.3,0h4.9v4.9h4.6V0h4.9v14.8h-4.9V9.9h-4.5v4.9h-5 M44.3,4.9h-4.4V0h13.7v4.9h-4.4v9.9h-4.9 M55.8,0H61
	l3.2,5.2L67.3,0h5.2v14.8h-4.9V7.5l-3.5,5.3l-3.5-5.3v7.3h-4.9 M74.9,0h4.9v9.9h7v4.9H74.9"/>
<path class="st1" d="M23.1,101.2L16,21.6h78l-7.1,79.5l-32,8.9"/>
<path class="st2" d="M55,103.2V28.1h31.9L80.8,96"/>
<path class="st3" d="M30.5,37.9H55v9.8H41.2l0.9,10H55v9.7H33.2 M33.6,72.3h9.8l0.7,7.8L55,83v10.2l-20-5.6"/>
<path class="st0" d="M79.4,37.9H55v9.8h23.5 M77.6,57.6H55v9.8h12l-1.1,12.7L55,83v10.1l20-5.5"/>
</svg>
