<?xml version="1.0" encoding="utf-8"?>
<!-- Generator: Adobe Illustrator 23.0.1, SVG Export Plug-In . SVG Version: 6.00 Build 0)  -->
<svg version="1.1"
	 id="svg2" inkscape:version="0.48.4 r9939" sodipodi:docname="javascript.svg" xmlns:cc="http://creativecommons.org/ns#" xmlns:dc="http://purl.org/dc/elements/1.1/" xmlns:inkscape="http://www.inkscape.org/namespaces/inkscape" xmlns:rdf="http://www.w3.org/1999/02/22-rdf-syntax-ns#" xmlns:sodipodi="http://sodipodi.sourceforge.net/DTD/sodipodi-0.dtd" xmlns:svg="http://www.w3.org/2000/svg"
	 xmlns="http://www.w3.org/2000/svg" xmlns:xlink="http://www.w3.org/1999/xlink" x="0px" y="0px" viewBox="0 0 145.8 157.8"
	 style="enable-background:new 0 0 145.8 157.8;" xml:space="preserve">
<style type="text/css">
	.st0{opacity:0.85;fill:#FFFFFF;enable-background:new    ;}
	.st1{fill:#FFFFFF;}
	.st2{fill:#D6BA32;}
	.st3{fill:#FFDA3E;}
	.st4{fill:#EBEBEB;}
</style>
<sodipodi:namedview  bordercolor="#666666" borderopacity="1.0" fit-margin-bottom="0" fit-margin-left="0" fit-margin-right="0" fit-margin-top="0" id="base" inkscape:current-layer="layer1" inkscape:cx="50.16802" inkscape:cy="19.624571" inkscape:document-units="px" inkscape:pageopacity="0.0" inkscape:pageshadow="2" inkscape:window-height="764" inkscape:window-maximized="0" inkscape:window-width="1026" inkscape:window-x="220" inkscape:window-y="220" inkscape:zoom="0.77995601" pagecolor="#ffffff" showgrid="false">
	</sodipodi:namedview>
<g id="layer1" transform="translate(-326.59295,-168.33349)" inkscape:groupmode="layer" inkscape:label="Layer 1">
	<g id="g8487" transform="translate(-202.57553,-38.463711)">
		<g id="g3652" transform="matrix(1.25,0,0,1.25,-2.5065195,174.1722)">
			<path id="path3654" inkscape:connector-curvature="0" class="st0" d="M512.9,26.1c1.4,0,2.8,0,4.2,0c0,0.8,0,2.3,0.1,3.1
				c-1.4,0-2.9,0-4.3,0C512.8,28.4,512.9,26.9,512.9,26.1z"/>
		</g>
		<path id="path3664" inkscape:connector-curvature="0" class="st1" d="M531.8,207.7c3.2,0,6.4,0,9.7,0.1
			c-0.3,5.8,0.8,11.7-0.8,17.3c-2.1,4-7.3,3.2-11.1,3.3c-0.2-1.3-0.3-2.6-0.4-3.8c2.2-0.2,4.5,0.3,6.5-0.9c1.3-4,0.7-8.3,0.4-12.4
			c-1.1,0-3.3,0.1-4.4,0.1C531.7,210.4,531.8,208.6,531.8,207.7L531.8,207.7z"/>
		<path id="path3666" inkscape:connector-curvature="0" class="st1" d="M596.2,209.2c3.8-2.9,8.8-1.7,13-0.6c0,1.1,0,3.3,0,4.4
			c-3.3-1.3-9.5-4.2-10.3,1.2c3.1,0.9,6.3,1.5,9.2,3.2c3,2.4,2.1,7.9-1.3,9.6c-3.9,2.3-8.5,1.1-12.6,0.2c-0.2-1.7-0.5-3.4-0.7-5.1
			c3.5,1.5,10.5,5.1,11.5-0.7c-3.5-1.3-7.8-1.5-10.3-4.5C593.4,214.4,593.6,210.9,596.2,209.2L596.2,209.2z"/>
		<path id="path3668" inkscape:connector-curvature="0" class="st1" d="M665.3,208.4c1.5,0,2.9,0,4.4,0c0,1.4,0.1,2.8,0.2,4.2
			c1.1,0,3.4,0,4.5,0.1c0,0.9,0.1,2.6,0.1,3.4c-1.2,0-3.5,0-4.6-0.1c0.1,2.9-0.7,6,0.8,8.6c1.1,0.1,3.2,0.3,4.3,0.4
			c-0.1,5.3-6.1,2.9-9.3,2.1c-0.3-3.2-0.4-6.4-0.4-9.6c-0.8-1.1-1.6-2.3-2.4-3.4c0.6-0.6,1.8-1.7,2.5-2.3
			C665.2,210.9,665.3,209.2,665.3,208.4L665.3,208.4z"/>
		<path id="path3670" inkscape:connector-curvature="0" class="st1" d="M545.4,212.8c4.1-0.2,9.8-1.7,12.3,2.5
			c0.9,4.2,0.3,8.5,0.5,12.8c-1.8-0.2-3.7-0.3-5.5-0.5c-2.1,0.2-4.5,1.7-6.4,0.3c-3.2-1.5-3.2-7.1,0.1-8.5c2.4-1,5.1-1.2,7.6-1.8
			c-2.4-2.5-5.8-1.6-8.9-1.2C545.2,215.4,545.3,213.7,545.4,212.8 M549.3,221.4c-0.1,1.2-0.3,2.4-0.4,3.6c1.4-0.1,2.8-0.1,4.2-0.2
			c0.1-1.3,0.2-2.6,0.3-3.9C552.1,221,550.7,221.2,549.3,221.4z"/>
		<path id="path3672" inkscape:connector-curvature="0" class="st1" d="M560,212.3c1.2,0.2,3.6,0.7,4.8,0.9c1.3,2.9,2.1,5.9,3.3,8.9
			c1-3.1,2-6.3,2.9-9.4c1.2,0,3.6-0.1,4.8-0.1c-1.7,5.4-3.6,10.7-5.7,15.9c-1.7-0.2-3.3-0.6-4.8-1
			C563.1,222.6,561.6,217.5,560,212.3L560,212.3z"/>
		<path id="path3674" inkscape:connector-curvature="0" class="st1" d="M577.5,216.3c0.3-1.2,0.8-2.4,1.2-3.5
			c3.9-0.6,9.1-1.4,11.8,2.2c0.9,4.3,0.3,8.8,0.4,13.2c-1.8-0.3-3.7-0.5-5.5-0.8c-3.3,1.7-8.7,1.1-8.7-3.5c-0.6-5.5,6.2-5.6,9.9-6.3
			C584.4,214.7,580.5,216.3,577.5,216.3 M582,221.5c-0.1,1.1-0.3,2.3-0.4,3.4c1.4,0,2.8,0.1,4.1,0.1c0.1-1.4,0.3-2.8,0.4-4.1
			C584.7,221,583.4,221.2,582,221.5L582,221.5z"/>
		<path id="path3676" inkscape:connector-curvature="0" class="st1" d="M610.9,220.4c-0.4-6.8,8.3-10.4,13.4-6.7
			c0.1,1,0.4,2.9,0.5,3.9c-2.4-0.8-4.8-2.4-7.4-1.3c-2.7,2.6-2.1,9.1,2.4,8.7c1.3-0.4,3.8-1.2,5-1.6c-0.2,1.1-0.7,3.2-0.9,4.3
			C618.6,230.2,610.5,227.2,610.9,220.4L610.9,220.4z"/>
		<path id="path3678" inkscape:connector-curvature="0" class="st1" d="M626.9,212.3c1.9,0.5,3.8,1,5.7,1.5c1.4-0.5,2.8-1,4.3-1.5
			c0.1,1.2,0.2,3.6,0.3,4.8c-1.8,0.1-3.6,0.2-5.4,0.3c-0.1,3.6-0.2,7.2-0.2,10.8c-1.2,0-3.5,0-4.7,0
			C626.8,222.9,626.8,217.6,626.9,212.3L626.9,212.3z"/>
		<path id="path3680" inkscape:connector-curvature="0" class="st1" d="M647.2,212.6c3.5,0.8,6.9,0.5,10.4-0.1
			c5.4,1.1,5.5,8.8,3.5,12.8c-1.7,3.4-5.9,3.1-9.1,2.9c0,1.8,0,3.6,0.1,5.5c-1.2,0-3.6,0-4.8-0.1
			C647.2,226.6,647.2,219.6,647.2,212.6 M652.1,216.3c0,2.9-0.1,5.8,0,8.8c1.5-0.4,3.5-0.1,4.7-1.5c0.9-2.4,0.2-4.9,0-7.4
			C655.2,216.2,653.7,216.3,652.1,216.3L652.1,216.3z"/>
		<g id="g3688" transform="matrix(1.25,0,0,1.25,-2.5065195,174.1722)">
			<path id="path3690" inkscape:connector-curvature="0" class="st1" d="M513.2,30.8c0.9,0,2.7,0,3.5,0c0.1,4.1,0.1,8.3,0,12.4
				c-0.9,0-2.7,0-3.5,0C513.2,39.1,513.2,34.9,513.2,30.8z"/>
		</g>
		<g id="g3768" transform="matrix(1.25,0,0,1.25,-2.5065195,174.1722)">
			<path id="path3770" inkscape:connector-curvature="0" class="st2" d="M439,51.2c10-0.4,20,0.1,29.9,0c11-0.3,22-0.1,33,0
				c8.7,0,17.5,0,26.2,0c-2.8,30.3-5.5,60.7-8.1,91c-11.7,3.3-23.4,6.6-35.1,9.9c-1.5,0.6-3,0-4.5-0.4c-11.1-3.2-22.3-6.4-33.4-9.4
				C444.2,111.9,441.5,81.6,439,51.2 M483.8,59.1c-0.4,15-0.1,29.9-0.2,44.9c0.1,13.7-0.2,27.4,0.2,41c9.8-2.3,19.5-5.2,29.3-8
				c2.4-26,4.8-51.9,6.9-77.9C507.9,59,495.8,59.1,483.8,59.1 M471.3,117.5c-5.8-1.6-11.5-3.4-17.4-4.7c-0.2,3.5-0.1,7,0.3,10.4
				c8.6,2.1,17,4.8,25.6,6.9c0.1-19.8,0-39.6,0-59.4c-2.8-0.1-5.6-0.1-8.4-0.2C471.1,86.2,471.4,101.9,471.3,117.5L471.3,117.5z"/>
		</g>
		<g id="g3796" transform="matrix(1.25,0,0,1.25,-2.5065195,174.1722)">
			<path id="path3798" inkscape:connector-curvature="0" class="st3" d="M483.8,59.1c12,0,24.1-0.1,36.1,0c-2,26-4.4,52-6.9,77.9
				c-9.7,2.8-19.4,5.7-29.3,8c-0.4-13.7,0-27.4-0.2-41.1C483.7,89,483.4,74.1,483.8,59.1 M487.2,70.7c0,12.9,0,25.8,0,38.7
				c5.9-0.9,11.7-2,17.6-3.1c-0.1,3-0.2,6-0.3,9c-5.7,1.5-11.4,3.1-17.1,4.5c-0.1,3.5-0.1,6.9-0.1,10.4c7.2-1.6,14.4-3.7,21.5-5.5
				c0.9-0.4,2.6-0.4,2.5-1.8c0.9-9.3,1.4-18.6,2.2-27.8c-6,0.5-11.8,1.5-17.8,1.9c0-5.3-0.1-10.5,0-15.8c6.3,0,12.5,0,18.8,0
				c0.4-3.5,0.8-7,1-10.6C506.1,70.7,496.6,70.6,487.2,70.7L487.2,70.7z"/>
		</g>
		<path id="path3806" inkscape:connector-curvature="0" class="st4" d="M586.6,321.1c0.2-19.6-0.2-39.1,0.2-58.7
			c3.5,0.1,7,0.1,10.5,0.2c-0.1,24.8,0,49.5,0,74.3c-10.7-2.6-21.2-6-32-8.6c-0.5-4.3-0.6-8.7-0.4-13
			C572.2,316.8,579.4,319.1,586.6,321.1z"/>
	</g>
</g>
</svg>
