<?xml version="1.0" encoding="utf-8"?>
<!-- Generator: Adobe Illustrator 23.0.1, SVG Export Plug-In . SVG Version: 6.00 Build 0)  -->
<svg version="1.1"
	 id="svg2169" inkscape:output_extension="org.inkscape.output.svg.inkscape" inkscape:version="0.45.1" sodipodi:docbase="/home/bene/Desktop" sodipodi:docname="dessin-1.svg" sodipodi:version="0.32" xmlns:cc="http://web.resource.org/cc/" xmlns:dc="http://purl.org/dc/elements/1.1/" xmlns:inkscape="http://www.inkscape.org/namespaces/inkscape" xmlns:rdf="http://www.w3.org/1999/02/22-rdf-syntax-ns#" xmlns:sodipodi="http://sodipodi.sourceforge.net/DTD/sodipodi-0.dtd" xmlns:svg="http://www.w3.org/2000/svg"
	 xmlns="http://www.w3.org/2000/svg" xmlns:xlink="http://www.w3.org/1999/xlink" x="0px" y="0px" viewBox="0 0 150 149.2"
	 style="enable-background:new 0 0 150 149.2;" xml:space="preserve">
<style type="text/css">
	.st0{fill:url(#path8615_1_);}
	.st1{fill:url(#path8620_1_);}
</style>
<sodipodi:namedview  bordercolor="#666666" borderopacity="1.0" height="184.25197px" id="base" inkscape:current-layer="layer1" inkscape:cx="-260.46312" inkscape:cy="316.02744" inkscape:document-units="px" inkscape:pageopacity="0.0" inkscape:pageshadow="2" inkscape:window-height="624" inkscape:window-width="872" inkscape:window-x="5" inkscape:window-y="48" inkscape:zoom="0.24748737" pagecolor="#ffffff" width="131.10236px">
	</sodipodi:namedview>
<g id="layer1" transform="translate(-473.36088,-251.72485)" inkscape:groupmode="layer" inkscape:label="Calque 1">
	<g id="g1894" transform="translate(428.42338,184.2561)">
		
			<linearGradient id="path8615_1_" gradientUnits="userSpaceOnUse" x1="103.9382" y1="137.9788" x2="178.1088" y2="63.5601" gradientTransform="matrix(1 0 0 -1 -44.9375 218.8416)">
			<stop  offset="0" style="stop-color:#387EB8"/>
			<stop  offset="1" style="stop-color:#366994"/>
		</linearGradient>
		<path id="path8615" class="st0" d="M119.4,67.5C81.3,67.5,83.7,84,83.7,84l0,17.1h36.3v5.1H69.3c0,0-24.4-2.8-24.4,35.7
			c0,38.4,21.3,37.1,21.3,37.1h12.7v-17.8c0,0-0.7-21.3,20.9-21.3s36,0,36,0s20.2,0.3,20.2-19.6s0-32.9,0-32.9
			S159.2,67.5,119.4,67.5z M99.4,79c3.6,0,6.5,2.9,6.5,6.5c0,3.6-2.9,6.5-6.5,6.5c-3.6,0-6.5-2.9-6.5-6.5C92.8,81.9,95.7,79,99.4,79
			z"/>
		
			<linearGradient id="path8620_1_" gradientUnits="userSpaceOnUse" x1="149.549" y1="90.604" x2="229.2086" y2="14.2861" gradientTransform="matrix(1 0 0 -1 -44.9375 218.8416)">
			<stop  offset="0" style="stop-color:#FFE052"/>
			<stop  offset="1" style="stop-color:#FFC331"/>
		</linearGradient>
		<path id="path8620" class="st1" d="M120.5,216.7c38.1,0,35.7-16.5,35.7-16.5l0-17.1h-36.3v-5.1h50.8c0,0,24.4,2.8,24.4-35.7
			c0-38.4-21.3-37.1-21.3-37.1H161V123c0,0,0.7,21.3-20.9,21.3c-21.6,0-36,0-36,0s-20.2-0.3-20.2,19.6s0,32.9,0,32.9
			S80.7,216.7,120.5,216.7z M140.5,205.2c-3.6,0-6.5-2.9-6.5-6.5s2.9-6.5,6.5-6.5s6.5,2.9,6.5,6.5
			C147.1,202.3,144.1,205.2,140.5,205.2z"/>
	</g>
</g>
</svg>
