<svg id="Book" xmlns="http://www.w3.org/2000/svg" viewBox="0 0 357.08 388.88"><title>Book</title><path d="M409.5,58.5c.35,2.83-2,4.25-3.2,6.54-1.76,3.31-2,7.22-2,10.9v6.24H391.54V67.69a1.33,1.33,0,0,0-.22-1.43,1.84,1.84,0,0,0-1.54-.33l-261.57,0c-34.69,1.26-41.3,13,.84,16.28V124c-20.72,0-29.29-5.17-37.48-10.34v25.23c8.19,5.17,16.76,10.34,37.48,10.34v218.3c-20.72,0-29.29-5.17-37.48-10.34v25.23c8.19,5.17,16.76,10.35,37.48,10.35v47.72c-6.35,0-13.12.65-19.4-.45a30.05,30.05,0,0,1-24.31-25c-1.49-10.23-.32-21.31-.32-31.6V108.92c0-12.48-.11-25,0-37.44.15-18.42,26.77-18.36,40-18.7,48.94-1.27,98.1-.08,147-.08,41.28,0,82.63-.86,123.9,0C400.17,52.79,408.82,52.89,409.5,58.5Z" transform="translate(-84.58 -52.19)"/><path d="M441.61,430.4c0,2.42.39,5.32-1,7.43-3.41,5.12-17,2.65-22,2.65H146.24V82.18h18.15c7.59,0,13.74,33.73,13.74,75.4,16.82-6.28,18.43-10.49,26.22-20.12l25.8,17.85c2.83-28.48-4.61-73.13-10.32-73.13H419.38c5.12,0,10.39-.36,15.5,0,7.05.49,6.73,6.12,6.73,11.55V430.4Z" transform="translate(-84.58 -52.19)"/></svg>