<svg id="Layer_1" data-name="Layer 1" xmlns="http://www.w3.org/2000/svg" viewBox="0 0 475.17 475.17"><defs><style>.cls-1{fill:#fff;}.cls-2{fill:none;stroke:#000;stroke-miterlimit:10;}</style></defs><title>Compass</title><g id="Inner_Circles" data-name="Inner Circles"><circle cx="237.59" cy="237.59" r="11.5"/><circle class="cls-1" cx="237.59" cy="237.59" r="4.5"/><circle class="cls-2" cx="237.59" cy="237.59" r="105"/><circle class="cls-2" cx="237.59" cy="237.59" r="114"/><circle class="cls-2" cx="237.59" cy="237.59" r="145"/></g><path class="cls-1" d="M229.15,228.43h0A29.84,29.84,0,0,0,220,250l-23.16-31.92-57-78.54Z" transform="translate(-12.41 -12.41)"/><polygon class="cls-1" points="207.59 237.59 183.94 269.98 183.93 269.98 0.09 237.59 207.59 237.59"/><path class="cls-1" d="M228.44,270.84A29.84,29.84,0,0,0,250,280l-31.92,23.16-78.54,57,88.89-89.31Z" transform="translate(-12.41 -12.41)"/><polygon class="cls-1" points="269.51 290.75 237.59 475.09 237.59 267.59 269.51 290.75"/><path class="cls-1" d="M303.66,282.39l56.8,77.77-88.89-89.31h0A29.82,29.82,0,0,0,280,250l23.65,32.39Z" transform="translate(-12.41 -12.41)"/><polygon class="cls-1" points="475.09 237.59 267.59 237.59 290.75 205.67 475.09 237.59"/><path class="cls-1" d="M360.16,139.54l-89.31,88.89h0A29.82,29.82,0,0,0,250,220l32.39-23.65h0Z" transform="translate(-12.41 -12.41)"/><polygon class="cls-1" points="237.59 0.09 237.59 207.59 205.2 183.94 205.2 183.93 237.59 0.09"/><path d="M217.61,196.35,250,220a29.82,29.82,0,0,0-20.84,8.44h0l-89.31-88.89,77.77,56.8Z" transform="translate(-12.41 -12.41)"/><polygon points="184.43 205.67 207.59 237.59 0.09 237.59 184.43 205.67"/><path d="M228.44,270.84h0l-88.89,89.31,56.8-77.77h0L220,250A29.82,29.82,0,0,0,228.44,270.84Z" transform="translate(-12.41 -12.41)"/><polygon points="237.59 267.59 237.59 475.09 205.67 290.75 237.59 267.59"/><path d="M271.57,270.85l88.89,89.31-78.54-57L250,280a29.84,29.84,0,0,0,21.56-9.16Z" transform="translate(-12.41 -12.41)"/><polygon points="475.09 237.59 291.25 269.98 291.24 269.98 267.59 237.59 475.09 237.59"/><path d="M270.85,228.43l89.31-88.89-57,78.54L280,250a29.84,29.84,0,0,0-9.16-21.56Z" transform="translate(-12.41 -12.41)"/><polygon points="269.98 183.93 269.98 183.94 237.59 207.59 237.59 0.09 269.98 183.93"/><line class="cls-2" x1="347.75" y1="127.13" x2="258.44" y2="216.02"/><polyline class="cls-2" points="237.59 207.59 269.98 183.94 269.98 183.93 347.75 127.13 290.75 205.67 267.59 237.59"/><line class="cls-2" x1="237.59" y1="0.09" x2="269.98" y2="183.93"/><path class="cls-2" d="M280,250a30,30,0,0,0-30-30" transform="translate(-12.41 -12.41)"/><line class="cls-2" x1="290.75" y1="205.67" x2="475.09" y2="237.59"/><line class="cls-2" x1="348.05" y1="347.75" x2="259.16" y2="258.44"/><polyline class="cls-2" points="267.59 237.59 291.24 269.98 291.25 269.98 348.05 347.75 269.51 290.75 237.59 267.59"/><path class="cls-2" d="M250,280a30,30,0,0,0,30-30H487.5L303.66,282.39" transform="translate(-12.41 -12.41)"/><line class="cls-2" x1="269.51" y1="290.75" x2="237.59" y2="475.09"/><line class="cls-2" x1="127.43" y1="127.13" x2="216.74" y2="216.02"/><polyline class="cls-2" points="237.59 207.59 205.2 183.94 205.2 183.93 127.43 127.13 184.43 205.67 207.59 237.59"/><path class="cls-2" d="M220,250a30,30,0,0,1,30-30V12.5L217.61,196.34" transform="translate(-12.41 -12.41)"/><line class="cls-2" x1="184.43" y1="205.67" x2="0.09" y2="237.59"/><line class="cls-2" x1="127.13" y1="347.75" x2="216.02" y2="258.44"/><polyline class="cls-2" points="207.59 237.59 183.94 269.98 183.93 269.98 127.13 347.75 205.67 290.75 237.59 267.59"/><path class="cls-2" d="M218.08,303.16,250,487.5V280a30,30,0,0,1-30-30H12.5l183.84,32.39" transform="translate(-12.41 -12.41)"/></svg>