<?xml version="1.0" encoding="UTF-8" standalone="no"?>
<svg
   xmlns:dc="http://purl.org/dc/elements/1.1/"
   xmlns:cc="http://creativecommons.org/ns#"
   xmlns:rdf="http://www.w3.org/1999/02/22-rdf-syntax-ns#"
   xmlns:svg="http://www.w3.org/2000/svg"
   xmlns="http://www.w3.org/2000/svg"
   xmlns:sodipodi="http://sodipodi.sourceforge.net/DTD/sodipodi-0.dtd"
   xmlns:inkscape="http://www.inkscape.org/namespaces/inkscape"
   height="48"
   viewBox="0 0 24 24"
   width="48"
   version="1.1"
   id="svg4232"
   sodipodi:docname="extension.svg"
   inkscape:version="0.92.4 (unknown)">
  <metadata
     id="metadata4238">
    <rdf:RDF>
      <cc:Work
         rdf:about="">
        <dc:format>image/svg+xml</dc:format>
        <dc:type
           rdf:resource="http://purl.org/dc/dcmitype/StillImage" />
        <dc:title></dc:title>
      </cc:Work>
    </rdf:RDF>
  </metadata>
  <defs
     id="defs4236" />
  <sodipodi:namedview
     pagecolor="#ffffff"
     bordercolor="#666666"
     borderopacity="1"
     objecttolerance="10"
     gridtolerance="10"
     guidetolerance="10"
     inkscape:pageopacity="0"
     inkscape:pageshadow="2"
     inkscape:window-width="1920"
     inkscape:window-height="1015"
     id="namedview4234"
     showgrid="false"
     inkscape:zoom="34.458333"
     inkscape:cx="12"
     inkscape:cy="12"
     inkscape:window-x="0"
     inkscape:window-y="0"
     inkscape:window-maximized="1"
     inkscape:current-layer="svg4232" />
  <path
     d="M0 0h24v24H0z"
     fill="none"
     id="path4228" />
  <path
     d="M20.5 11H19V7c0-1.1-.9-2-2-2h-4V3.5C13 2.12 11.88 1 10.5 1S8 2.12 8 3.5V5H4c-1.1 0-1.99.9-1.99 2v3.8H3.5c1.49 0 2.7 1.21 2.7 2.7s-1.21 2.7-2.7 2.7H2V20c0 1.1.9 2 2 2h3.8v-1.5c0-1.49 1.21-2.7 2.7-2.7 1.49 0 2.7 1.21 2.7 2.7V22H17c1.1 0 2-.9 2-2v-4h1.5c1.38 0 2.5-1.12 2.5-2.5S21.88 11 20.5 11z"
     id="path4230" />
  <path
     style="fill:#ffffff;stroke-width:0.02902056"
     d="M 3.7171617,21.965693 C 3.2963667,21.904024 2.9300335,21.713639 2.6018688,21.386071 2.4040094,21.188572 2.3294582,21.088741 2.2328369,20.891898 2.0191438,20.456551 2.0236427,20.513314 2.0231617,18.246483 l -4.289e-4,-2.021474 0.9359129,-0.01305 c 0.8354389,-0.01165 0.9617524,-0.01972 1.1766064,-0.07513 0.9656327,-0.249031 1.6777368,-0.92929 1.9701343,-1.882031 0.071589,-0.233264 0.078495,-0.297832 0.080071,-0.748631 0.00151,-0.433316 -0.00639,-0.520657 -0.064948,-0.71776 C 5.9824846,12.323833 5.7723807,11.958733 5.4506554,11.624391 5.1148698,11.275437 4.7233186,11.038271 4.2366622,10.889064 3.9852569,10.811984 3.9676392,10.810706 3.0010917,10.79945 L 2.0205631,10.788031 2.0289031,8.7081629 2.037243,6.628295 2.1191845,6.3961306 C 2.2418221,6.048662 2.3551133,5.8709366 2.6300143,5.5947668 2.8330348,5.3908092 2.9249334,5.3225531 3.1292388,5.2239776 3.5605331,5.0158813 3.5224204,5.018723 5.8897219,5.018158 l 2.1112455,-5.038e-4 5.02e-4,-0.7472794 C 8.0017596,3.8593712 8.0148514,3.4008213 8.0305924,3.251375 8.1375227,2.2361841 8.8374289,1.3985527 9.8158326,1.114842 10.96138,0.78266409 12.181403,1.31959 12.716234,2.3912938 c 0.236642,0.4741869 0.254952,0.5881826 0.269189,1.6759372 l 0.01244,0.9504232 2.108566,5.049e-4 c 2.383375,5.688e-4 2.335644,-0.00318 2.784801,0.2185231 0.453141,0.2236649 0.813269,0.6311727 0.979039,1.1078452 0.115771,0.3328983 0.129,0.6090083 0.129251,2.697694 l 2.32e-4,1.9786176 0.993954,0.0096 0.993954,0.0096 0.275696,0.09524 c 0.706947,0.244224 1.272305,0.773888 1.540223,1.442983 0.04903,0.12246 0.107566,0.309518 0.130068,0.415685 0.05458,0.257526 0.05266,0.73813 -0.004,1.014085 -0.159779,0.777435 -0.734231,1.473974 -1.470879,1.78348 -0.394392,0.165706 -0.634314,0.195144 -1.593916,0.195568 l -0.861667,3.8e-4 -0.0104,2.154777 c -0.01165,2.413247 -4.09e-4,2.278781 -0.229792,2.749697 -0.162687,0.333993 -0.513033,0.688868 -0.851457,0.862463 -0.451865,0.231784 -0.330901,0.22108 -2.630383,0.232765 l -2.049973,0.01042 -0.01362,-0.937345 c -0.01288,-0.886479 -0.01759,-0.952323 -0.08687,-1.213373 -0.132618,-0.499749 -0.333977,-0.859686 -0.687545,-1.229021 -0.340458,-0.355638 -0.78212,-0.616168 -1.270661,-0.749546 -0.336888,-0.09198 -0.99975,-0.0911 -1.3431661,0.0018 -0.9155959,0.24761 -1.6250002,0.917347 -1.9097958,1.803007 -0.106237,0.330377 -0.1216576,0.511299 -0.1216576,1.427337 v 0.894308 l -1.9661427,-0.0036 c -1.0813785,-0.002 -2.0329121,-0.01341 -2.1145191,-0.02537 z"
     id="path4240"
     inkscape:connector-curvature="0" />
</svg>
