<svg id="Layer_1" data-name="Layer 1" xmlns="http://www.w3.org/2000/svg" viewBox="0 0 273.17 176.23"><defs><style>.cls-1{fill:#fff;}.cls-2{fill:#542e8f;}.cls-3{fill:#414347;}</style></defs><title>flpoly</title><path class="cls-1" d="M96.58,66.25a10,10,0,0,0,.48,3.54c.2.37,5.87,7.25,13.35,16.27l38.69,44.43h10.63L130.41,75.58Z" transform="translate(0 -0.18)"/><path class="cls-1" d="M113.47,35.67a11.69,11.69,0,0,0,0,4c.17.57,7.55,14.87,16.39,31.9l31.46,58.9h10.94L152.63,65.42Z" transform="translate(0 -0.18)"/><path class="cls-1" d="M135.48.18a2.4,2.4,0,0,0-1.61,2.44c0,.51,13.61,39.74,21.34,66.44l.9,3.08,17.61,58.35h17.79V80.38Z" transform="translate(0 -0.18)"/><path class="cls-1" d="M118.56,97.51,93,100.88A4.31,4.31,0,0,0,94.39,105l31.93,25.54h21Z" transform="translate(0 -0.18)"/><polygon points="20.34 149.35 20.34 145.19 1.84 145.19 1.84 175.62 6.27 175.62 6.27 161.5 18.28 161.5 18.28 157.33 6.27 157.33 6.27 149.35 20.34 149.35"/><polygon points="29.38 171.45 29.38 145.19 24.95 145.19 24.95 175.62 42.89 175.62 42.89 171.45 29.38 171.45"/><path d="M56.6,172.23A7.9,7.9,0,0,1,53,171.5a5.73,5.73,0,0,1-2.27-2.13,10.43,10.43,0,0,1-1.32-3.62,28.2,28.2,0,0,1-.43-5.16,28.5,28.5,0,0,1,.43-5.2,10.47,10.47,0,0,1,1.31-3.62,5.74,5.74,0,0,1,2.28-2.1,7.85,7.85,0,0,1,3.57-.73,7.7,7.7,0,0,1,3.54.74,5.55,5.55,0,0,1,2.27,2.11,10.88,10.88,0,0,1,1.31,3.63,32,32,0,0,1,0,10.34,11,11,0,0,1-1.31,3.63,5.68,5.68,0,0,1-2.27,2.11,7.8,7.8,0,0,1-3.54.73m11.57-18.09a13.88,13.88,0,0,0-2.08-5,9.72,9.72,0,0,0-3.85-3.24,12.92,12.92,0,0,0-5.64-1.12A12.86,12.86,0,0,0,51,145.9a9.86,9.86,0,0,0-3.83,3.26,14.05,14.05,0,0,0-2.1,5A33,33,0,0,0,45,167a14.13,14.13,0,0,0,2.1,5A9.63,9.63,0,0,0,51,175.28a12.86,12.86,0,0,0,5.64,1.12,13.07,13.07,0,0,0,5.64-1.11A9.85,9.85,0,0,0,66.09,172a14,14,0,0,0,2.08-5,33.7,33.7,0,0,0,0-12.87" transform="translate(0 -0.18)"/><path d="M78.56,149.48h4.52a12.85,12.85,0,0,1,3,.29,4.15,4.15,0,0,1,1.74.82,3,3,0,0,1,.9,1.39,7.51,7.51,0,0,1,.32,2.34,9,9,0,0,1-.31,2.52,3.17,3.17,0,0,1-.9,1.48,4.08,4.08,0,0,1-1.76.85,13.14,13.14,0,0,1-3.07.3h-4.4ZM88,162.88a10.41,10.41,0,0,0,1.7-.69,6.85,6.85,0,0,0,2.17-1.79,7.56,7.56,0,0,0,1.33-2.66,12.9,12.9,0,0,0,.44-3.55,10.88,10.88,0,0,0-.68-4.06,6.69,6.69,0,0,0-2.11-2.81,8.61,8.61,0,0,0-3.34-1.51,19.59,19.59,0,0,0-4.36-.44h-9V175.8h4.43V163.6h4.79l7.37,12.2H96Z" transform="translate(0 -0.18)"/><polygon points="109.66 149.26 109.66 145.19 97.35 145.19 97.35 149.26 101.28 149.26 101.28 171.53 97.35 171.53 97.35 175.62 109.66 175.62 109.66 171.53 105.71 171.53 105.71 149.26 109.66 149.26"/><path d="M118.51,149.52h2.86a16.28,16.28,0,0,1,4.65.58,6.22,6.22,0,0,1,2.87,1.78,7.81,7.81,0,0,1,1.62,3.33,27.62,27.62,0,0,1,0,10.77,7.71,7.71,0,0,1-1.64,3.33,6.09,6.09,0,0,1-2.88,1.76,16.51,16.51,0,0,1-4.6.55h-2.86Zm16.34,4a11,11,0,0,0-2.64-4.78,10.23,10.23,0,0,0-4.48-2.63,22.17,22.17,0,0,0-6.11-.76h-7.55V175.8h7.59a22.71,22.71,0,0,0,5.88-.69,10,10,0,0,0,4.5-2.52,11.26,11.26,0,0,0,2.75-4.76,24.79,24.79,0,0,0,.9-7.24,25.49,25.49,0,0,0-.84-7.05" transform="translate(0 -0.18)"/><path d="M146.23,163.32l4-11.89,4,11.89Zm6.44-17.95H147.9L137.35,175.8H142l2.81-8.31h10.88l2.81,8.31h4.77Z" transform="translate(0 -0.18)"/><path d="M185,149.52h4.09a11.55,11.55,0,0,1,2.7.3,4.57,4.57,0,0,1,1.83.91,4.07,4.07,0,0,1,1.12,1.67,8.58,8.58,0,0,1,.41,2.86,10.81,10.81,0,0,1-.39,3.2,3.94,3.94,0,0,1-1.11,1.78,4.37,4.37,0,0,1-2,.91,14.32,14.32,0,0,1-3.15.29H185Zm12.21-1.69c-1.7-1.63-4.34-2.46-7.85-2.46h-8.78V175.8H185V165.62h4a17.29,17.29,0,0,0,4.63-.55,8.17,8.17,0,0,0,3.44-1.86,7.7,7.7,0,0,0,2.06-3.33,15.13,15.13,0,0,0,.65-4.71c0-3.22-.87-5.69-2.58-7.34" transform="translate(0 -0.18)"/><path d="M215.41,172.23a7.9,7.9,0,0,1-3.57-.73,5.8,5.8,0,0,1-2.27-2.13,10.43,10.43,0,0,1-1.32-3.62,28.26,28.26,0,0,1-.42-5.16,28.57,28.57,0,0,1,.42-5.2,10.28,10.28,0,0,1,1.32-3.62,5.65,5.65,0,0,1,2.27-2.1,7.9,7.9,0,0,1,3.57-.73,7.7,7.7,0,0,1,3.54.74,5.55,5.55,0,0,1,2.27,2.11,10.46,10.46,0,0,1,1.31,3.63,32,32,0,0,1,0,10.34,10.61,10.61,0,0,1-1.31,3.63A5.68,5.68,0,0,1,219,171.5a7.8,7.8,0,0,1-3.54.73M227,154.14a13.71,13.71,0,0,0-2.08-5,9.76,9.76,0,0,0-3.84-3.24,13,13,0,0,0-5.65-1.12,12.86,12.86,0,0,0-5.64,1.13,9.93,9.93,0,0,0-3.83,3.26,14,14,0,0,0-2.09,5,32.52,32.52,0,0,0,0,12.84,14.12,14.12,0,0,0,2.09,5,9.76,9.76,0,0,0,3.83,3.26,12.89,12.89,0,0,0,5.64,1.12,13.15,13.15,0,0,0,5.65-1.11A9.89,9.89,0,0,0,224.9,172a13.83,13.83,0,0,0,2.08-5,33.7,33.7,0,0,0,0-12.87" transform="translate(0 -0.18)"/><polygon points="237.37 171.45 237.37 145.19 232.94 145.19 232.94 175.62 250.88 175.62 250.88 171.45 237.37 171.45"/><polygon points="268.32 145.19 261.18 159.2 254.13 145.19 249.18 145.19 258.93 163.98 258.93 175.62 263.39 175.62 263.39 163.83 273.17 145.19 268.32 145.19"/><polygon class="cls-2" points="18.5 147.34 18.5 143.19 0 143.19 0 173.62 4.42 173.62 4.42 159.5 16.44 159.5 16.44 155.33 4.42 155.33 4.42 147.34 18.5 147.34"/><polygon class="cls-2" points="27.54 169.45 27.54 143.19 23.11 143.19 23.11 173.62 41.05 173.62 41.05 169.45 27.54 169.45"/><path class="cls-2" d="M54.75,170.23a7.7,7.7,0,0,1-3.56-.74,5.66,5.66,0,0,1-2.28-2.12,10.61,10.61,0,0,1-1.32-3.63,28.07,28.07,0,0,1-.42-5.15,28.57,28.57,0,0,1,.42-5.2,10.48,10.48,0,0,1,1.32-3.62,5.65,5.65,0,0,1,2.27-2.1,9,9,0,0,1,7.12,0,5.68,5.68,0,0,1,2.26,2.12,10.46,10.46,0,0,1,1.31,3.63,32,32,0,0,1,0,10.33,10.46,10.46,0,0,1-1.31,3.63,5.58,5.58,0,0,1-2.26,2.11,7.71,7.71,0,0,1-3.55.74m11.58-18.09a13.89,13.89,0,0,0-2.09-5,9.76,9.76,0,0,0-3.84-3.24,12.94,12.94,0,0,0-5.65-1.12,12.92,12.92,0,0,0-5.64,1.13,9.93,9.93,0,0,0-3.83,3.26,14,14,0,0,0-2.09,5,33,33,0,0,0,0,12.84,14.12,14.12,0,0,0,2.09,5,9.76,9.76,0,0,0,3.83,3.26,12.92,12.92,0,0,0,5.64,1.12,12.94,12.94,0,0,0,5.65-1.12A9.71,9.71,0,0,0,64.24,170a14,14,0,0,0,2.09-5,33.7,33.7,0,0,0,0-12.87" transform="translate(0 -0.18)"/><path class="cls-2" d="M76.71,147.48h4.53a12.91,12.91,0,0,1,3,.29,4.21,4.21,0,0,1,1.74.82,3,3,0,0,1,.9,1.39,7.54,7.54,0,0,1,.31,2.34,9,9,0,0,1-.3,2.52,3.25,3.25,0,0,1-.9,1.48,4.2,4.2,0,0,1-1.76.85,13.74,13.74,0,0,1-3.08.3h-4.4Zm9.41,13.4a10.17,10.17,0,0,0,1.71-.69A6.85,6.85,0,0,0,90,158.4a7.73,7.73,0,0,0,1.33-2.66,13,13,0,0,0,.44-3.55,10.67,10.67,0,0,0-.69-4.06A6.69,6.69,0,0,0,89,145.32a8.55,8.55,0,0,0-3.34-1.51,19.49,19.49,0,0,0-4.35-.44h-9V173.8h4.42V161.6h4.8l7.37,12.2h5.28Z" transform="translate(0 -0.18)"/><polygon class="cls-2" points="107.82 147.26 107.82 143.19 95.5 143.19 95.5 147.26 99.44 147.26 99.44 169.53 95.5 169.53 95.5 173.62 107.82 173.62 107.82 169.53 103.86 169.53 103.86 147.26 107.82 147.26"/><path class="cls-2" d="M116.67,147.52h2.86a16.28,16.28,0,0,1,4.65.58,6.19,6.19,0,0,1,2.87,1.78,7.69,7.69,0,0,1,1.61,3.33,23,23,0,0,1,.53,5.33,22.56,22.56,0,0,1-.55,5.44,7.71,7.71,0,0,1-1.64,3.33,6,6,0,0,1-2.87,1.75,16.11,16.11,0,0,1-4.6.56h-2.86Zm16.34,4a11.23,11.23,0,0,0-2.64-4.78,10.21,10.21,0,0,0-4.49-2.63,22.1,22.1,0,0,0-6.1-.76h-7.56V173.8h7.6a22.26,22.26,0,0,0,5.88-.7,10,10,0,0,0,4.5-2.51,11.26,11.26,0,0,0,2.75-4.76,25.13,25.13,0,0,0,.9-7.24,25.88,25.88,0,0,0-.84-7.05" transform="translate(0 -0.18)"/><path class="cls-2" d="M144.38,161.32l4-11.89,4,11.89Zm6.45-17.95h-4.77L135.5,173.8h4.68l2.81-8.31h10.87l2.81,8.31h4.78Z" transform="translate(0 -0.18)"/><path class="cls-3" d="M183.12,147.52h4.09a11.46,11.46,0,0,1,2.69.3,4.5,4.5,0,0,1,1.83.91,4,4,0,0,1,1.12,1.67,8.3,8.3,0,0,1,.42,2.86,10.45,10.45,0,0,1-.4,3.2,3.84,3.84,0,0,1-1.1,1.78,4.47,4.47,0,0,1-2,.91,14.41,14.41,0,0,1-3.16.29h-3.54Zm12.2-1.69c-1.7-1.63-4.34-2.46-7.84-2.46H178.7V173.8h4.42V163.62h4a17.24,17.24,0,0,0,4.63-.55,8.27,8.27,0,0,0,3.45-1.86,7.89,7.89,0,0,0,2.06-3.33,15.15,15.15,0,0,0,.64-4.71c0-3.22-.86-5.69-2.58-7.34" transform="translate(0 -0.18)"/><path class="cls-3" d="M213.57,170.23a7.77,7.77,0,0,1-3.57-.74,5.72,5.72,0,0,1-2.28-2.12,10.82,10.82,0,0,1-1.32-3.63,28.07,28.07,0,0,1-.42-5.15,28.57,28.57,0,0,1,.42-5.2,10.68,10.68,0,0,1,1.32-3.62,5.61,5.61,0,0,1,2.28-2.1,9,9,0,0,1,7.11,0,5.64,5.64,0,0,1,2.27,2.12,10.66,10.66,0,0,1,1.3,3.63,31.24,31.24,0,0,1,0,10.33,10.66,10.66,0,0,1-1.3,3.63,5.55,5.55,0,0,1-2.27,2.11,7.7,7.7,0,0,1-3.54.74m11.57-18.09a13.72,13.72,0,0,0-2.09-5,9.62,9.62,0,0,0-3.84-3.24,14.7,14.7,0,0,0-11.28,0,9.79,9.79,0,0,0-3.83,3.26,14.05,14.05,0,0,0-2.1,5A33,33,0,0,0,202,165a14.13,14.13,0,0,0,2.1,5,9.63,9.63,0,0,0,3.83,3.26,14.76,14.76,0,0,0,11.28,0,9.74,9.74,0,0,0,3.85-3.25,14,14,0,0,0,2.08-5,33.7,33.7,0,0,0,0-12.87" transform="translate(0 -0.18)"/><polygon class="cls-3" points="235.53 169.45 235.53 143.19 231.1 143.19 231.1 173.62 249.04 173.62 249.04 169.45 235.53 169.45"/><polygon class="cls-3" points="266.48 143.19 259.33 157.2 252.29 143.19 247.34 143.19 257.08 161.98 257.08 173.62 261.55 173.62 261.55 161.83 271.32 143.19 266.48 143.19"/></svg>