<svg xmlns="http://www.w3.org/2000/svg" viewBox="0 0 410.46 465.81"><defs><style>.cls-1{fill:#fff;stroke:#000;stroke-miterlimit:10;}</style></defs><title>gears</title><g id="Layer_1" data-name="Layer 1"><circle cx="156.56" cy="309.26" r="131.25"/><rect x="199.62" y="174.14" width="60" height="45" transform="translate(6.58 -61.89) rotate(13)"/><rect x="100.55" y="190.72" width="60" height="45" transform="translate(-136.7 86.3) rotate(-32)"/><rect x="42.21" y="272.51" width="60" height="45" transform="translate(-275.02 283.73) rotate(-77)"/><rect x="58.79" y="371.58" width="60" height="45" transform="translate(-241.9 662.94) rotate(-122)"/><rect x="140.57" y="429.92" width="60" height="45" transform="translate(191.46 916.33) rotate(-167)"/><rect x="239.65" y="413.34" width="60" height="45" transform="translate(685.75 647.28) rotate(148)"/><rect x="297.99" y="331.56" width="60" height="45" transform="matrix(-0.22, 0.97, -0.97, -0.22, 703.21, 98.85)"/><rect x="281.41" y="232.48" width="60" height="45" transform="translate(319.08 -159.5) rotate(58)"/><circle class="cls-1" cx="156.56" cy="309.26" r="53.26"/></g><g id="Layer_2" data-name="Layer 2"><circle cx="301.08" cy="109.38" r="91.7"/><rect x="309.24" y="18.38" width="41.92" height="31.44" transform="translate(-44.8 37.07) rotate(-9.05)"/><rect x="249.43" y="55.1" width="41.92" height="31.44" transform="translate(10.77 232.84) rotate(-54.05)"/><rect x="233.1" y="123.36" width="41.92" height="31.44" transform="translate(113.12 396.57) rotate(-99.05)"/><rect x="269.82" y="183.17" width="41.92" height="31.44" transform="translate(365.85 515.34) rotate(-144.05)"/><rect x="338.08" y="199.5" width="41.92" height="31.44" transform="translate(703.92 356.03) rotate(170.95)"/><rect x="397.9" y="162.78" width="41.92" height="31.44" transform="matrix(-0.59, 0.81, -0.81, -0.59, 765.73, -71.03)"/><rect x="414.23" y="94.52" width="41.92" height="31.44" transform="translate(432.09 -352.14) rotate(80.95)"/><rect x="377.5" y="34.7" width="41.92" height="31.44" transform="translate(61.98 -239.62) rotate(35.95)"/><circle class="cls-1" cx="301.08" cy="109.38" r="37.21"/></g></svg>