<svg id="Layer_1" data-name="Layer 1" xmlns="http://www.w3.org/2000/svg" viewBox="0 0 107.18 139.38"><defs><style>.cls-1{fill:#fff;}</style></defs><title>JH</title><path d="M157.74,204.69m0-14.87V150.64H176v38.45h32.52V150.64h18v95.73h-18V204.69H176l0,18.68v33.54a37.27,37.27,0,0,1-.53,6.45,31,31,0,0,1-1.59,5.86,27.17,27.17,0,0,1-2.62,5.16,25.15,25.15,0,0,1-8.2,7.86,30.9,30.9,0,0,1-5.59,2.61,35.67,35.67,0,0,1-6.57,1.62,50.17,50.17,0,0,1-7.56.54,48.69,48.69,0,0,1-5.83-.34,45.33,45.33,0,0,1-5.6-1.05,50.28,50.28,0,0,1-5.14-1.57,38.16,38.16,0,0,1-4.45-1.94V264.68a24.29,24.29,0,0,0,2,1.48c.72.48,1.48.93,2.3,1.37s1.66.85,2.54,1.24,1.77.74,2.7,1.07,1.87.62,2.82.88,1.91.47,2.89.66,2,.32,2.91.41,1.93.14,2.88.14a15,15,0,0,0,2.46-.22,17.74,17.74,0,0,0,2.55-.66,12.41,12.41,0,0,0,2.47-1.17,13.31,13.31,0,0,0,2.19-1.76,13.54,13.54,0,0,0,1.86-2.37,18.48,18.48,0,0,0,1.5-3,17.7,17.7,0,0,0,1-3.72,28.59,28.59,0,0,0,.33-4.51V204.69H123.1V189.82h34.64" transform="translate(-119.37 -147.64)"/><path class="cls-1" d="M154.74,201.69m0-14.87V147.64H173v38.45h32.52V147.64h18v95.73h-18V201.69H173l0,18.68v33.54a37.27,37.27,0,0,1-.53,6.45,31,31,0,0,1-1.59,5.86,27.17,27.17,0,0,1-2.62,5.16,25.15,25.15,0,0,1-8.2,7.86,30.9,30.9,0,0,1-5.59,2.61,35.67,35.67,0,0,1-6.57,1.62,50.17,50.17,0,0,1-7.56.54,48.69,48.69,0,0,1-5.83-.34,45.33,45.33,0,0,1-5.6-1.05,50.28,50.28,0,0,1-5.14-1.57,38.16,38.16,0,0,1-4.45-1.94V261.68a24.29,24.29,0,0,0,2,1.48c.72.48,1.48.93,2.3,1.37s1.66.85,2.54,1.24,1.77.74,2.7,1.07,1.87.62,2.82.88,1.91.47,2.89.66,2,.32,2.91.41,1.93.14,2.88.14a15,15,0,0,0,2.46-.22,17.74,17.74,0,0,0,2.55-.66,12.41,12.41,0,0,0,2.47-1.17,13.31,13.31,0,0,0,2.19-1.76,13.54,13.54,0,0,0,1.86-2.37,18.48,18.48,0,0,0,1.5-3,17.7,17.7,0,0,0,1-3.72,28.59,28.59,0,0,0,.33-4.51V201.69H120.1V186.82h34.64" transform="translate(-119.37 -147.64)"/></svg>