<?xml version="1.0" encoding="utf-8"?>
<!-- Generator: Adobe Illustrator 23.0.1, SVG Export Plug-In . SVG Version: 6.00 Build 0)  -->
<svg version="1.1" id="Layer_1" xmlns="http://www.w3.org/2000/svg" xmlns:xlink="http://www.w3.org/1999/xlink" x="0px" y="0px"
	 viewBox="0 0 538.4 700" style="enable-background:new 0 0 538.4 700;" xml:space="preserve">
<style type="text/css">
	.st0{fill:#FFFFFF;}
</style>
<title>JH</title>
<path d="M193,211.9V15.1h91.7v193.1H448V15.1h90.4v480.8H448V286.5H284.7v93.8v168.5c0.1,10.9-0.8,21.7-2.7,32.4
	c-1.7,10-4.4,19.9-8,29.4c-3.5,9.1-7.9,17.8-13.2,25.9c-10.5,16.1-24.6,29.6-41.2,39.5c-8.9,5.3-18.3,9.7-28.1,13.1
	c-10.7,3.8-21.8,6.5-33,8.1c-12.6,1.9-25.3,2.8-38,2.7c-9.8,0-19.6-0.6-29.3-1.7c-9.5-1.2-18.9-2.9-28.1-5.3
	c-8.7-2.2-17.4-4.8-25.8-7.9c-7.6-2.8-15.1-6-22.4-9.7v-87.5c3.2,2.6,6.6,5.1,10,7.4c3.6,2.4,7.4,4.7,11.6,6.9
	c4.1,2.2,8.3,4.3,12.8,6.2c4.4,2,8.9,3.7,13.6,5.4s9.4,3.1,14.2,4.4c4.8,1.3,9.6,2.4,14.5,3.3c4.9,1,10,1.6,14.6,2.1
	s9.7,0.7,14.5,0.7c4.1,0,8.3-0.4,12.4-1.1c4.3-0.8,8.6-1.9,12.8-3.3c4.3-1.5,8.5-3.5,12.4-5.9c4-2.6,7.7-5.5,11-8.8
	c3.5-3.6,6.7-7.6,9.3-11.9c3-4.8,5.5-9.8,7.5-15.1c2.3-6,4-12.3,5-18.7c1.1-7.5,1.7-15.1,1.7-22.7V286.5H19v-74.7H193"/>
<path class="st0" d="M177.9,196.8V0h91.7v193.1h163.3V0h90.4v480.8h-90.4V271.5H269.6v93.8v168.5c0.1,10.9-0.8,21.7-2.7,32.4
	c-1.7,10-4.4,19.9-8,29.4c-3.5,9.1-7.9,17.8-13.2,25.9c-10.5,16.1-24.6,29.6-41.2,39.5c-8.9,5.3-18.3,9.7-28.1,13.1
	c-10.7,3.8-21.8,6.5-33,8.1c-12.6,1.9-25.3,2.8-38,2.7c-9.8,0-19.6-0.6-29.3-1.7c-9.5-1.2-18.9-2.9-28.1-5.3
	c-8.7-2.2-17.4-4.8-25.8-7.9c-7.6-2.8-15.1-6-22.4-9.7v-87.5c3.2,2.6,6.6,5.1,10,7.4c3.6,2.4,7.4,4.7,11.6,6.9
	c4.1,2.2,8.3,4.3,12.8,6.2s8.9,3.7,13.6,5.4s9.4,3.1,14.2,4.4s9.6,2.4,14.5,3.3c4.9,1,10,1.6,14.6,2.1s9.7,0.7,14.5,0.7
	c4.1,0,8.3-0.4,12.4-1.1c4.3-0.8,8.6-1.9,12.8-3.3c4.3-1.5,8.5-3.5,12.4-5.9c4-2.6,7.7-5.5,11-8.8c3.5-3.6,6.7-7.6,9.3-11.9
	c3-4.8,5.5-9.8,7.5-15.1c2.3-6,4-12.3,5-18.7c1.1-7.5,1.7-15.1,1.7-22.7V271.5H3.9v-74.7H177.9"/>
</svg>
