<svg id="Layer_2" data-name="Layer 2" xmlns="http://www.w3.org/2000/svg" viewBox="0 0 426.06 449.3"><defs><style>.cls-1{fill:#fff;}</style></defs><title>wrench</title><path d="M67.83,424.34c3.81-8.08,13.48-10.83,21.75-9.37,8.73,1.56,17.06,7.58,20.07,16.11a16.83,16.83,0,0,1-.42,12.83l-16,32a1.65,1.65,0,0,0,1.52,2.38c18.22-.46,35.81-9.6,46-24.89a52.24,52.24,0,0,0,.81-56.29c-10.47-16.74-29.67-26.5-49.29-26.14S54,381.69,44.17,398.7a52.25,52.25,0,0,0,3.06,56.52c.49.67,1,1.34,1.51,2a1.65,1.65,0,0,0,2.75-.3l16.34-32.57" transform="translate(-37.3 -28.97)"/><path d="M333.52,132c9.38-10.06,14.11-21.79,16.26-35.4,5,23.31,25.84,40.31,49.24,42.58-11.4,3.7-21.67,9.4-29.89,18.16l-66.61,71.34-120.32,129L166,375.07c-9.38,10.06-14.12,21.79-16.26,35.4-5-23.31-25.84-40.31-49.25-42.58,11.41-3.69,21.68-9.4,29.9-18.16Q136.71,343,143,336.17l51.54-55.27L321.88,144.36Z" transform="translate(-37.3 -28.97)"/><path d="M432.83,82.43c-3.67,8.14-13.29,11.06-21.58,9.74-8.76-1.4-17.19-7.28-20.35-15.75a16.89,16.89,0,0,1,.19-12.84l15.47-32.25A1.66,1.66,0,0,0,405,29c-18.21.78-35.65,10.23-45.55,25.69a52.21,52.21,0,0,0,.17,56.29c10.76,16.56,30.13,26,49.73,25.29s38.07-11.42,47.59-28.59a52.24,52.24,0,0,0-4.05-56.46c-.5-.67-1-1.32-1.54-2a1.65,1.65,0,0,0-2.75.34L432.83,82.43" transform="translate(-37.3 -28.97)"/><rect class="cls-1" x="94.03" y="246.07" width="310.68" height="15.86" rx="7.93" transform="translate(-143.77 234.18) rotate(-47)"/></svg>