<?xml version="1.0" encoding="UTF-8" standalone="no"?>
<svg
   xmlns:dc="http://purl.org/dc/elements/1.1/"
   xmlns:cc="http://creativecommons.org/ns#"
   xmlns:rdf="http://www.w3.org/1999/02/22-rdf-syntax-ns#"
   xmlns:svg="http://www.w3.org/2000/svg"
   xmlns="http://www.w3.org/2000/svg"
   xmlns:sodipodi="http://sodipodi.sourceforge.net/DTD/sodipodi-0.dtd"
   xmlns:inkscape="http://www.inkscape.org/namespaces/inkscape"
   height="48"
   viewBox="0 0 24 24"
   width="48"
   version="1.1"
   id="svg4118"
   sodipodi:docname="code.svg"
   inkscape:version="0.92.4 (unknown)">
  <metadata
     id="metadata4124">
    <rdf:RDF>
      <cc:Work
         rdf:about="">
        <dc:format>image/svg+xml</dc:format>
        <dc:type
           rdf:resource="http://purl.org/dc/dcmitype/StillImage" />
        <dc:title></dc:title>
      </cc:Work>
    </rdf:RDF>
  </metadata>
  <defs
     id="defs4122" />
  <sodipodi:namedview
     pagecolor="#ffffff"
     bordercolor="#666666"
     borderopacity="1"
     objecttolerance="10"
     gridtolerance="10"
     guidetolerance="10"
     inkscape:pageopacity="0"
     inkscape:pageshadow="2"
     inkscape:window-width="1920"
     inkscape:window-height="1015"
     id="namedview4120"
     showgrid="false"
     inkscape:zoom="34.458333"
     inkscape:cx="12"
     inkscape:cy="12"
     inkscape:window-x="0"
     inkscape:window-y="0"
     inkscape:window-maximized="1"
     inkscape:current-layer="svg4118" />
  <path
     d="M0 0h24v24H0V0z"
     fill="none"
     id="path4114" />
  <path
     d="M9.4 16.6L4.8 12l4.6-4.6L8 6l-6 6 6 6 1.4-1.4zm5.2 0l4.6-4.6-4.6-4.6L16 6l6 6-6 6-1.4-1.4z"
     id="path4116" />
  <path
     style="stroke-width:0.02902056;fill:#ffffff"
     d="m 5.0045421,14.978907 -2.9818096,-2.981914 2.9891057,-2.9890004 2.9891056,-2.989 0.6892002,0.6892003 0.6892005,0.6892004 -2.2998068,2.299807 -2.299807,2.2998067 2.2997066,2.299843 2.2997064,2.299843 -0.6816015,0.682065 c -0.3748808,0.375135 -0.688259,0.682064 -0.6963961,0.682064 -0.00814,0 -1.3566088,-1.341862 -2.996604,-2.981915 z"
     id="path4126"
     inkscape:connector-curvature="0" />
  <path
     style="fill:#ffffff;stroke-width:0.02902056"
     d="m 15.314066,17.278758 -0.681601,-0.682065 2.285218,-2.285355 c 1.256871,-1.256946 2.285219,-2.298354 2.285219,-2.31424 0,-0.01589 -1.028383,-1.057329 -2.285296,-2.3143172 l -2.285296,-2.2854335 0.689177,-0.6891774 0.689177,-0.6891773 2.989106,2.989 2.989106,2.9890004 -2.98181,2.981914 c -1.639995,1.640053 -2.988467,2.981915 -2.996604,2.981915 -0.0081,0 -0.321515,-0.306929 -0.696396,-0.682064 z"
     id="path4128"
     inkscape:connector-curvature="0" />
</svg>
