<?xml version="1.0" encoding="UTF-8" standalone="no"?>
<svg
   xmlns:dc="http://purl.org/dc/elements/1.1/"
   xmlns:cc="http://creativecommons.org/ns#"
   xmlns:rdf="http://www.w3.org/1999/02/22-rdf-syntax-ns#"
   xmlns:svg="http://www.w3.org/2000/svg"
   xmlns="http://www.w3.org/2000/svg"
   xmlns:sodipodi="http://sodipodi.sourceforge.net/DTD/sodipodi-0.dtd"
   xmlns:inkscape="http://www.inkscape.org/namespaces/inkscape"
   height="39"
   viewBox="0 0 24 24"
   width="48"
   version="1.1"
   id="svg4354"
   sodipodi:docname="mail.svg"
   inkscape:version="0.92.4 (unknown)">
  <metadata
     id="metadata4360">
    <rdf:RDF>
      <cc:Work
         rdf:about="">
        <dc:format>image/svg+xml</dc:format>
        <dc:type
           rdf:resource="http://purl.org/dc/dcmitype/StillImage" />
        <dc:title></dc:title>
      </cc:Work>
    </rdf:RDF>
  </metadata>
  <defs
     id="defs4358" />
  <sodipodi:namedview
     pagecolor="#ffffff"
     bordercolor="#666666"
     borderopacity="1"
     objecttolerance="10"
     gridtolerance="10"
     guidetolerance="10"
     inkscape:pageopacity="0"
     inkscape:pageshadow="2"
     inkscape:window-width="1920"
     inkscape:window-height="1015"
     id="namedview4356"
     showgrid="false"
     inkscape:zoom="34.458333"
     inkscape:cx="12"
     inkscape:cy="12"
     inkscape:window-x="0"
     inkscape:window-y="0"
     inkscape:window-maximized="1"
     inkscape:current-layer="svg4354" />
  <path
     d="M20 4H4c-1.1 0-1.99.9-1.99 2L2 18c0 1.1.9 2 2 2h16c1.1 0 2-.9 2-2V6c0-1.1-.9-2-2-2zm0 4l-8 5-8-5V6l8 5 8-5v2z"
     id="path4350" />
  <path
     d="M0 0h24v24H0z"
     fill="none"
     id="path4352" />
  <path
     style="fill:#ffffff;stroke-width:0.02902056"
     d="M 3.7494559,19.971698 C 3.3111806,19.910215 2.9366186,19.718361 2.6018688,19.383895 2.404171,19.186364 2.3293793,19.086161 2.2328369,18.88948 2.006559,18.428495 2.0236404,18.985952 2.0231617,12.04666 2.0226833,5.1105054 2.0083469,5.5973703 2.2262952,5.1482467 2.4866733,4.6116883 2.9305149,4.2401993 3.5172914,4.0677014 3.6815255,4.0194207 4.1537389,4.0160508 11.831681,4.008368 c 5.180975,-0.00518 8.226044,0.00218 8.376219,0.020255 0.79593,0.095802 1.425134,0.6106824 1.687401,1.3808087 l 0.07906,0.2321644 0.008,6.2539299 c 0.009,6.987068 0.02281,6.498364 -0.196901,6.950423 -0.251058,0.516561 -0.649175,0.864725 -1.204108,1.053024 l -0.232164,0.07878 -8.256348,0.0031 c -4.5409918,0.0017 -8.2955262,-0.0024 -8.3434101,-0.0091 z m 12.2656371,-9.464651 3.985874,-2.4912606 0.0076,-1.0057167 c 0.0045,-0.5966048 -0.0032,-1.0057166 -0.019,-1.0057166 -0.01465,0 -1.794141,1.1050401 -3.954427,2.4556446 -2.160285,1.3506045 -3.955241,2.4683853 -3.988789,2.4839573 -0.05232,0.02428 -0.623739,-0.323404 -4.0158139,-2.4434734 -2.1751487,-1.3594821 -3.97273,-2.47866 -3.9946252,-2.487062 -0.033277,-0.01277 -0.039602,0.1506992 -0.038546,0.9962929 l 0.00126,1.0115692 3.9818084,2.4873863 c 2.1899937,1.368063 3.9968707,2.487894 4.0152807,2.488513 0.01841,6.18e-4 1.827115,-1.119941 4.019347,-2.490134 z"
     id="path4362"
     inkscape:connector-curvature="0" />
</svg>
