<?xml version="1.0" encoding="UTF-8" standalone="no"?>
<svg
   xmlns:dc="http://purl.org/dc/elements/1.1/"
   xmlns:cc="http://creativecommons.org/ns#"
   xmlns:rdf="http://www.w3.org/1999/02/22-rdf-syntax-ns#"
   xmlns:svg="http://www.w3.org/2000/svg"
   xmlns="http://www.w3.org/2000/svg"
   xmlns:sodipodi="http://sodipodi.sourceforge.net/DTD/sodipodi-0.dtd"
   xmlns:inkscape="http://www.inkscape.org/namespaces/inkscape"
   height="48"
   viewBox="0 0 24 24"
   width="48"
   version="1.1"
   id="svg4415"
   sodipodi:docname="person.svg"
   inkscape:version="0.92.4 (unknown)">
  <metadata
     id="metadata4421">
    <rdf:RDF>
      <cc:Work
         rdf:about="">
        <dc:format>image/svg+xml</dc:format>
        <dc:type
           rdf:resource="http://purl.org/dc/dcmitype/StillImage" />
        <dc:title></dc:title>
      </cc:Work>
    </rdf:RDF>
  </metadata>
  <defs
     id="defs4419" />
  <sodipodi:namedview
     pagecolor="#ffffff"
     bordercolor="#666666"
     borderopacity="1"
     objecttolerance="10"
     gridtolerance="10"
     guidetolerance="10"
     inkscape:pageopacity="0"
     inkscape:pageshadow="2"
     inkscape:window-width="1920"
     inkscape:window-height="1015"
     id="namedview4417"
     showgrid="false"
     inkscape:zoom="34.458333"
     inkscape:cx="12"
     inkscape:cy="12"
     inkscape:window-x="0"
     inkscape:window-y="0"
     inkscape:window-maximized="1"
     inkscape:current-layer="svg4415" />
  <path
     d="M12 12c2.21 0 4-1.79 4-4s-1.79-4-4-4-4 1.79-4 4 1.79 4 4 4zm0 2c-2.67 0-8 1.34-8 4v2h16v-2c0-2.66-5.33-4-8-4z"
     id="path4411" />
  <path
     d="M0 0h24v24H0z"
     fill="none"
     id="path4413" />
  <path
     style="fill:#ffffff;stroke-width:0.02902056"
     d="m 4.0251511,18.865102 c 0,-1.018508 0.0054,-1.148268 0.056005,-1.346138 0.169957,-0.664525 0.7019633,-1.281625 1.5836563,-1.836958 1.5688478,-0.988136 4.5238026,-1.728709 6.6166866,-1.658279 1.856929,0.06249 3.95624,0.577263 5.484886,1.344952 1.250749,0.628129 2.000006,1.399181 2.178688,2.242063 0.03035,0.143178 0.0405,0.462462 0.04088,1.285993 l 5.04e-4,1.095526 H 12.005804 4.0251511 Z"
     id="path4423"
     inkscape:connector-curvature="0" />
  <path
     style="fill:#ffffff;stroke-width:0.02902056"
     d="M 11.381862,11.937083 C 10.476075,11.79877 9.5649184,11.289731 8.9801714,10.595323 8.2761208,9.7592381 7.947295,8.7474634 8.0330217,7.6810079 8.1789311,5.8658677 9.5331132,4.3872879 11.338331,4.0720663 c 0.361483,-0.063121 0.974101,-0.063054 1.334946,1.451e-4 1.417163,0.2482059 2.598151,1.2409861 3.075179,2.5851042 0.151745,0.4275694 0.205262,0.713374 0.222799,1.1898428 0.02681,0.7283364 -0.08714,1.2613506 -0.409462,1.9153567 -0.220178,0.4467519 -0.467167,0.7837749 -0.820397,1.1194539 -0.598905,0.569148 -1.344435,0.935277 -2.155181,1.058406 -0.338289,0.05138 -0.8556,0.04996 -1.204353,-0.0033 z"
     id="path4425"
     inkscape:connector-curvature="0" />
</svg>
