<?xml version="1.0" encoding="utf-8"?>
<!-- Generator: Adobe Illustrator 23.0.1, SVG Export Plug-In . SVG Version: 6.00 Build 0)  -->
<svg version="1.1" id="Layer_1" xmlns="http://www.w3.org/2000/svg" xmlns:xlink="http://www.w3.org/1999/xlink" x="0px" y="0px"
	 viewBox="0 0 150 150" style="enable-background:new 0 0 150 150;" xml:space="preserve">
<style type="text/css">
	.st0{fill:#FFFFFF;}
	.st1{fill:#E44D26;}
	.st2{fill:#F16529;}
	.st3{fill:#EBEBEB;}
</style>
<title>HTML5 Logo</title>
<path class="st0" d="M31.8,0h6.7v6.7h6.3V0h6.7v20.2h-6.7v-6.7h-6.1v6.7h-6.8 M60.4,6.7h-6V0h18.7v6.7h-6v13.5h-6.7 M76.1,0h7.1
	l4.4,7.1L91.8,0h7.1v20.2h-6.7v-10l-4.8,7.2l-4.8-7.2v10H76 M102.1,0h6.7v13.5h9.5v6.7h-16.2"/>
<path class="st1" d="M31.5,138L21.8,29.5h106.4l-9.7,108.4L74.9,150"/>
<path class="st2" d="M75,140.7V38.3h43.5l-8.3,92.6"/>
<path class="st3" d="M41.6,51.7H75V65H56.2l1.2,13.6H75v13.2H45.3 M45.8,98.6h13.4l1,10.6l14.9,4v13.9l-27.3-7.6"/>
<path class="st0" d="M108.3,51.7H75V65h32 M105.8,78.5H75v13.4h16.4l-1.5,17.3l-14.9,4V127l27.3-7.5"/>
</svg>
