<?xml version="1.0" encoding="utf-8"?>
<!-- Generator: Adobe Illustrator 23.0.1, SVG Export Plug-In . SVG Version: 6.00 Build 0)  -->
<svg version="1.1"
	 id="svg2" inkscape:version="0.48.4 r9939" sodipodi:docname="javascript.svg" xmlns:cc="http://creativecommons.org/ns#" xmlns:dc="http://purl.org/dc/elements/1.1/" xmlns:inkscape="http://www.inkscape.org/namespaces/inkscape" xmlns:rdf="http://www.w3.org/1999/02/22-rdf-syntax-ns#" xmlns:sodipodi="http://sodipodi.sourceforge.net/DTD/sodipodi-0.dtd" xmlns:svg="http://www.w3.org/2000/svg"
	 xmlns="http://www.w3.org/2000/svg" xmlns:xlink="http://www.w3.org/1999/xlink" x="0px" y="0px" viewBox="0 0 138.6 150"
	 style="enable-background:new 0 0 138.6 150;" xml:space="preserve">
<style type="text/css">
	.st0{opacity:0.85;fill:#FFFFFF;enable-background:new    ;}
	.st1{fill:#FFFFFF;}
	.st2{fill:#D6BA32;}
	.st3{fill:#FFDA3E;}
	.st4{fill:#EBEBEB;}
</style>
<sodipodi:namedview  bordercolor="#666666" borderopacity="1.0" fit-margin-bottom="0" fit-margin-left="0" fit-margin-right="0" fit-margin-top="0" id="base" inkscape:current-layer="layer1" inkscape:cx="50.16802" inkscape:cy="19.624571" inkscape:document-units="px" inkscape:pageopacity="0.0" inkscape:pageshadow="2" inkscape:window-height="764" inkscape:window-maximized="0" inkscape:window-width="1026" inkscape:window-x="220" inkscape:window-y="220" inkscape:zoom="0.77995601" pagecolor="#ffffff" showgrid="false">
	</sodipodi:namedview>
<g id="layer1" transform="translate(-326.59295,-168.33349)" inkscape:groupmode="layer" inkscape:label="Layer 1">
	<g id="g8487" transform="translate(-202.57553,-38.463711)">
		<g id="g3652" transform="matrix(1.25,0,0,1.25,-2.5065195,174.1722)">
			<path id="path3654" inkscape:connector-curvature="0" class="st0" d="M508.6,26.1c1.3,0,2.7,0,4,0c0,0.8,0,2.2,0.1,2.9
				c-1.3,0-2.8,0-4.1,0C508.5,28.3,508.6,26.9,508.6,26.1z"/>
		</g>
		<path id="path3664" inkscape:connector-curvature="0" class="st1" d="M531.7,207.7c3,0,6.1,0,9.2,0.1c-0.3,5.5,0.8,11.1-0.8,16.4
			c-2,3.8-6.9,3-10.6,3.1c-0.2-1.2-0.3-2.5-0.4-3.6c2.1-0.2,4.3,0.3,6.2-0.9c1.2-3.8,0.7-7.9,0.4-11.8c-1,0-3.1,0.1-4.2,0.1
			C531.6,210.2,531.7,208.5,531.7,207.7L531.7,207.7z"/>
		<path id="path3666" inkscape:connector-curvature="0" class="st1" d="M592.9,209.1c3.6-2.8,8.4-1.6,12.4-0.6c0,1,0,3.1,0,4.2
			c-3.1-1.2-9-4-9.8,1.1c2.9,0.9,6,1.4,8.7,3c2.9,2.3,2,7.5-1.2,9.1c-3.7,2.2-8.1,1-12,0.2c-0.2-1.6-0.5-3.2-0.7-4.8
			c3.3,1.4,10,4.8,10.9-0.7c-3.3-1.2-7.4-1.4-9.8-4.3C590.2,214,590.4,210.7,592.9,209.1L592.9,209.1z"/>
		<path id="path3668" inkscape:connector-curvature="0" class="st1" d="M658.6,208.3c1.4,0,2.8,0,4.2,0c0,1.3,0.1,2.7,0.2,4
			c1,0,3.2,0,4.3,0.1c0,0.9,0.1,2.5,0.1,3.2c-1.1,0-3.3,0-4.4-0.1c0.1,2.8-0.7,5.7,0.8,8.2c1,0.1,3,0.3,4.1,0.4
			c-0.1,5-5.8,2.8-8.8,2c-0.3-3-0.4-6.1-0.4-9.1c-0.8-1-1.5-2.2-2.3-3.2c0.6-0.6,1.7-1.6,2.4-2.2
			C658.5,210.7,658.6,209.1,658.6,208.3L658.6,208.3z"/>
		<path id="path3670" inkscape:connector-curvature="0" class="st1" d="M544.6,212.5c3.9-0.2,9.3-1.6,11.7,2.4
			c0.9,4,0.3,8.1,0.5,12.2c-1.7-0.2-3.5-0.3-5.2-0.5c-2,0.2-4.3,1.6-6.1,0.3c-3-1.4-3-6.7,0.1-8.1c2.3-1,4.8-1.1,7.2-1.7
			c-2.3-2.4-5.5-1.5-8.5-1.1C544.4,215,544.5,213.4,544.6,212.5 M548.3,220.7c-0.1,1.1-0.3,2.3-0.4,3.4c1.3-0.1,2.7-0.1,4-0.2
			c0.1-1.2,0.2-2.5,0.3-3.7C551,220.3,549.6,220.5,548.3,220.7z"/>
		<path id="path3672" inkscape:connector-curvature="0" class="st1" d="M558.5,212c1.1,0.2,3.4,0.7,4.6,0.9c1.2,2.8,2,5.6,3.1,8.5
			c1-2.9,1.9-6,2.8-8.9c1.1,0,3.4-0.1,4.6-0.1c-1.6,5.1-3.4,10.2-5.4,15.1c-1.6-0.2-3.1-0.6-4.6-1C561.4,221.8,560,217,558.5,212
			L558.5,212z"/>
		<path id="path3674" inkscape:connector-curvature="0" class="st1" d="M575.1,215.8c0.3-1.1,0.8-2.3,1.1-3.3
			c3.7-0.6,8.6-1.3,11.2,2.1c0.9,4.1,0.3,8.4,0.4,12.5c-1.7-0.3-3.5-0.5-5.2-0.8c-3.1,1.6-8.3,1-8.3-3.3c-0.6-5.2,5.9-5.3,9.4-6
			C581.7,214.3,578,215.8,575.1,215.8 M579.4,220.8c-0.1,1-0.3,2.2-0.4,3.2c1.3,0,2.7,0.1,3.9,0.1c0.1-1.3,0.3-2.7,0.4-3.9
			C582,220.3,580.7,220.5,579.4,220.8L579.4,220.8z"/>
		<path id="path3676" inkscape:connector-curvature="0" class="st1" d="M606.9,219.7c-0.4-6.5,7.9-9.9,12.7-6.4
			c0.1,1,0.4,2.8,0.5,3.7c-2.3-0.8-4.6-2.3-7-1.2c-2.6,2.5-2,8.6,2.3,8.3c1.2-0.4,3.6-1.1,4.8-1.5c-0.2,1-0.7,3-0.9,4.1
			C614.2,229,606.5,226.2,606.9,219.7L606.9,219.7z"/>
		<path id="path3678" inkscape:connector-curvature="0" class="st1" d="M622.1,212c1.8,0.5,3.6,1,5.4,1.4c1.3-0.5,2.7-1,4.1-1.4
			c0.1,1.1,0.2,3.4,0.3,4.6c-1.7,0.1-3.4,0.2-5.1,0.3c-0.1,3.4-0.2,6.8-0.2,10.3c-1.1,0-3.3,0-4.5,0C622,222.1,622,217.1,622.1,212
			L622.1,212z"/>
		<path id="path3680" inkscape:connector-curvature="0" class="st1" d="M641.4,212.3c3.3,0.8,6.6,0.5,9.9-0.1
			c5.1,1,5.2,8.4,3.3,12.2c-1.6,3.2-5.6,2.9-8.6,2.8c0,1.7,0,3.4,0.1,5.2c-1.1,0-3.4,0-4.6-0.1C641.4,225.6,641.4,219,641.4,212.3
			 M646,215.8c0,2.8-0.1,5.5,0,8.4c1.4-0.4,3.3-0.1,4.5-1.4c0.9-2.3,0.2-4.7,0-7C649,215.7,647.5,215.8,646,215.8L646,215.8z"/>
		<g id="g3688" transform="matrix(1.25,0,0,1.25,-2.5065195,174.1722)">
			<path id="path3690" inkscape:connector-curvature="0" class="st1" d="M508.9,30.6c0.9,0,2.6,0,3.3,0c0.1,3.9,0.1,7.9,0,11.8
				c-0.9,0-2.6,0-3.3,0C508.9,38.5,508.9,34.5,508.9,30.6z"/>
		</g>
		<g id="g3768" transform="matrix(1.25,0,0,1.25,-2.5065195,174.1722)">
			<path id="path3770" inkscape:connector-curvature="0" class="st2" d="M438.3,50c9.5-0.4,19,0.1,28.4,0c10.5-0.3,20.9-0.1,31.4,0
				c8.3,0,16.6,0,24.9,0c-2.7,28.8-5.2,57.7-7.7,86.5c-11.1,3.1-22.2,6.3-33.4,9.4c-1.4,0.6-2.9,0-4.3-0.4
				c-10.6-3-21.2-6.1-31.7-8.9C443.3,107.7,440.7,78.9,438.3,50 M480.9,57.5c-0.4,14.3-0.1,28.4-0.2,42.7c0.1,13-0.2,26,0.2,39
				c9.3-2.2,18.5-4.9,27.8-7.6c2.3-24.7,4.6-49.3,6.6-74C503.8,57.4,492.3,57.5,480.9,57.5 M469,113c-5.5-1.5-10.9-3.2-16.5-4.5
				c-0.2,3.3-0.1,6.7,0.3,9.9c8.2,2,16.2,4.6,24.3,6.6c0.1-18.8,0-37.6,0-56.5c-2.7-0.1-5.3-0.1-8-0.2
				C468.8,83.2,469.1,98.2,469,113L469,113z"/>
		</g>
		<g id="g3796" transform="matrix(1.25,0,0,1.25,-2.5065195,174.1722)">
			<path id="path3798" inkscape:connector-curvature="0" class="st3" d="M480.9,57.5c11.4,0,22.9-0.1,34.3,0
				c-1.9,24.7-4.2,49.4-6.6,74c-9.2,2.7-18.4,5.4-27.8,7.6c-0.4-13,0-26-0.2-39.1C480.8,85.9,480.5,71.7,480.9,57.5 M484.1,68.5
				c0,12.3,0,24.5,0,36.8c5.6-0.9,11.1-1.9,16.7-2.9c-0.1,2.9-0.2,5.7-0.3,8.6c-5.4,1.4-10.8,2.9-16.3,4.3c-0.1,3.3-0.1,6.6-0.1,9.9
				c6.8-1.5,13.7-3.5,20.4-5.2c0.9-0.4,2.5-0.4,2.4-1.7c0.9-8.8,1.3-17.7,2.1-26.4c-5.7,0.5-11.2,1.4-16.9,1.8c0-5-0.1-10,0-15
				c6,0,11.9,0,17.9,0c0.4-3.3,0.8-6.7,1-10.1C502.1,68.5,493.1,68.4,484.1,68.5L484.1,68.5z"/>
		</g>
		<path id="path3806" inkscape:connector-curvature="0" class="st4" d="M583.8,315.4c0.2-18.6-0.2-37.2,0.2-55.8
			c3.3,0.1,6.7,0.1,10,0.2c-0.1,23.6,0,47,0,70.6c-10.2-2.5-20.1-5.7-30.4-8.2c-0.5-4.1-0.6-8.3-0.4-12.4
			C570.1,311.4,576.9,313.5,583.8,315.4z"/>
	</g>
</g>
</svg>
