<?xml version="1.0" encoding="utf-8"?>
<!-- Generator: Adobe Illustrator 23.0.1, SVG Export Plug-In . SVG Version: 6.00 Build 0)  -->
<svg version="1.1" id="Layer_1" xmlns="http://www.w3.org/2000/svg" xmlns:xlink="http://www.w3.org/1999/xlink" x="0px" y="0px"
	 viewBox="0 0 111 150" style="enable-background:new 0 0 111 150;" xml:space="preserve">
<style type="text/css">
	.st0{fill:#5382A1;}
	.st1{fill:#E76F00;}
</style>
<g>
	<path class="st0" d="M35.7,116.1c0,0-5.7,3.3,4.1,4.5c11.9,1.4,18,1.2,31.1-1.3c0,0,3.4,2.2,8.3,4
		C49.7,135.8,12.6,122.5,35.7,116.1"/>
	<path class="st0" d="M32.1,99.6c0,0-6.4,4.8,3.4,5.8c12.7,1.3,22.7,1.4,40.1-1.9c0,0,2.4,2.4,6.2,3.8
		C46.2,117.6,6.7,108.1,32.1,99.6"/>
	<path class="st1" d="M62.3,71.8c7.2,8.3-1.9,15.8-1.9,15.8s18.4-9.5,9.9-21.4c-7.9-11.1-13.9-16.6,18.8-35.6
		C89.2,30.7,37.8,43.5,62.3,71.8"/>
	<path class="st0" d="M101.2,128.2c0,0,4.2,3.5-4.7,6.2c-16.9,5.1-70.5,6.7-85.4,0.2c-5.4-2.3,4.7-5.6,7.8-6.2
		c3.3-0.7,5.2-0.6,5.2-0.6c-6-4.2-38.5,8.2-16.5,11.8C67.4,149.3,116.7,135.2,101.2,128.2"/>
	<path class="st0" d="M38.4,82.6c0,0-27.3,6.5-9.7,8.8c7.4,1,22.3,0.8,36.1-0.4c11.3-1,22.6-3,22.6-3s-4,1.7-6.9,3.7
		C52.9,99-0.6,95.7,14.8,88.2C27.9,81.9,38.4,82.6,38.4,82.6"/>
	<path class="st0" d="M87.3,110c28.1-14.6,15.1-28.7,6-26.8c-2.2,0.5-3.2,0.9-3.2,0.9s0.8-1.3,2.4-1.9c18-6.3,31.8,18.6-5.8,28.5
		C86.8,110.7,87.2,110.3,87.3,110"/>
	<path class="st1" d="M70.4,0.1c0,0,15.6,15.6-14.8,39.6c-24.4,19.2-5.6,30.2,0,42.7C41.4,69.5,30.9,58.2,37.9,47.7
		C48.2,32.3,76.7,24.8,70.4,0.1"/>
	<path class="st0" d="M41.2,149.6c27,1.7,68.5-1,69.5-13.7c0,0-1.9,4.8-22.3,8.7c-23.1,4.3-51.5,3.8-68.4,1.1
		C20,145.6,23.5,148.5,41.2,149.6"/>
</g>
</svg>
