<?xml version="1.0" encoding="utf-8"?>
<!-- Generator: Adobe Illustrator 23.0.1, SVG Export Plug-In . SVG Version: 6.00 Build 0)  -->
<svg version="1.1" id="Layer_1" xmlns="http://www.w3.org/2000/svg" xmlns:xlink="http://www.w3.org/1999/xlink" x="0px" y="0px"
	 viewBox="0 0 64 64" style="enable-background:new 0 0 64 64;" xml:space="preserve">
<style type="text/css">
	.st0{fill:#FFFFFF;}
</style>
<title>JH</title>
<path class="st0" d="M27.4,19.9l4.4-17.5l8.1,2l-4.3,17.1l14.5,3.6l4.3-17.1l8,2L51.7,52.7l-8-2l4.6-18.6l-14.5-3.6l-2.1,8.3
	L28,51.8c-0.2,1-0.6,1.9-1,2.8c-0.4,0.8-0.8,1.7-1.4,2.4c-0.5,0.7-1.1,1.4-1.7,2c-1.3,1.2-2.8,2.1-4.5,2.6c-0.9,0.3-1.8,0.5-2.8,0.5
	c-1,0.1-2.1,0.1-3.1,0c-1.2-0.1-2.3-0.3-3.4-0.6c-0.9-0.2-1.7-0.5-2.6-0.8c-0.8-0.3-1.6-0.7-2.4-1.1c-0.7-0.4-1.4-0.8-2.1-1.3
	c-0.6-0.4-1.2-0.9-1.8-1.4l1.9-7.8c0.2,0.3,0.5,0.6,0.7,0.9c0.3,0.3,0.6,0.6,0.9,0.9c0.3,0.3,0.6,0.6,1,0.8c0.3,0.3,0.7,0.5,1.1,0.8
	c0.4,0.3,0.8,0.5,1.2,0.7c0.4,0.2,0.8,0.4,1.2,0.6c0.4,0.2,0.9,0.4,1.2,0.5c0.4,0.1,0.8,0.3,1.3,0.4c0.4,0.1,0.7,0.1,1.1,0.2
	c0.4,0,0.8,0,1.2,0c0.4,0,0.8-0.1,1.2-0.2c0.4-0.1,0.8-0.3,1.2-0.5c0.4-0.2,0.8-0.5,1.1-0.8c0.4-0.4,0.7-0.7,1-1.2
	c0.3-0.5,0.6-1,0.9-1.5c0.3-0.6,0.5-1.3,0.7-2l5.5-22.2l-15.4-3.9l1.7-6.6L27.4,19.9"/>
<path d="M26.3,18.2l4.4-17.5l8.1,2l-4.3,17.1l14.5,3.6l4.3-17.1l8,2L50.7,51.1l-8-2l4.6-18.6l-14.5-3.6l-2.1,8.3L27,50.2
	c-0.2,1-0.6,1.9-1,2.8c-0.4,0.8-0.8,1.7-1.4,2.4c-0.5,0.7-1.1,1.4-1.7,2c-1.3,1.2-2.8,2.1-4.5,2.6c-0.9,0.3-1.8,0.5-2.8,0.5
	c-1,0.1-2.1,0.1-3.1,0c-1.2-0.1-2.3-0.3-3.4-0.6c-0.9-0.2-1.7-0.5-2.6-0.8c-0.8-0.3-1.6-0.7-2.4-1.1c-0.7-0.4-1.4-0.8-2.1-1.3
	c-0.6-0.4-1.2-0.9-1.8-1.4l1.9-7.8c0.2,0.3,0.5,0.6,0.7,0.9c0.3,0.3,0.6,0.6,0.9,0.9c0.3,0.3,0.6,0.6,1,0.8s0.7,0.5,1.1,0.8
	s0.8,0.5,1.2,0.7s0.8,0.4,1.2,0.6c0.4,0.2,0.9,0.4,1.2,0.5c0.4,0.1,0.8,0.3,1.3,0.4c0.4,0.1,0.7,0.1,1.1,0.2c0.4,0,0.8,0,1.2,0
	c0.4,0,0.8-0.1,1.2-0.2c0.4-0.1,0.8-0.3,1.2-0.5c0.4-0.2,0.8-0.5,1.1-0.8c0.4-0.4,0.7-0.7,1-1.2c0.3-0.5,0.6-1,0.9-1.5
	c0.3-0.6,0.5-1.3,0.7-2l5.5-22.2L9.3,21l1.7-6.6L26.3,18.2"/>
</svg>
