<?xml version="1.0" encoding="utf-8"?>
<!-- Generator: Adobe Illustrator 23.0.1, SVG Export Plug-In . SVG Version: 6.00 Build 0)  -->
<svg version="1.1" id="Layer_1" xmlns="http://www.w3.org/2000/svg" xmlns:xlink="http://www.w3.org/1999/xlink" x="0px" y="0px"
	 viewBox="0 0 200 230.6" style="enable-background:new 0 0 200 230.6;" xml:space="preserve">
<style type="text/css">
	.st0{fill-rule:evenodd;clip-rule:evenodd;fill:#A1C535;}
	.st1{fill-rule:evenodd;clip-rule:evenodd;fill:#ADD439;}
	.st2{fill-rule:evenodd;clip-rule:evenodd;fill:#1B6AC6;}
	.st3{fill-rule:evenodd;clip-rule:evenodd;fill:#2E90E8;}
	.st4{fill-rule:evenodd;clip-rule:evenodd;fill:#EA205E;}
	.st5{fill-rule:evenodd;clip-rule:evenodd;fill:#A5073E;}
	.st6{fill-rule:evenodd;clip-rule:evenodd;fill:#F1F6E2;}
	.st7{fill-rule:evenodd;clip-rule:evenodd;fill:#CEDBE6;}
	.st8{fill-rule:evenodd;clip-rule:evenodd;fill:#FFFFFF;}
</style>
<title>Apache NetBeans Logo</title>
<description>Apache NetBeans Logo</description>
<g id="logo">
	<path class="st0" d="M100,4V47L40.8,81.4L3.4,59.6L100,4z"/>
	<path class="st1" d="M196.6,59.6l-37.4,21.7L100,47V4L196.6,59.6L196.6,59.6z"/>
	<path class="st2" d="M196.6,171l-37.4-21.7V81.4l37.4-21.7V171L196.6,171z"/>
	<path class="st3" d="M100,226.7v-43.1l59.2-34.4l37.4,21.7L100,226.7L100,226.7z"/>
	<path class="st4" d="M3.4,171l37.4-21.7l59.2,34.4v43.1L3.4,171L3.4,171z"/>
	<path class="st5" d="M3.4,59.6l37.4,21.7v67.9L3.4,171V59.6L3.4,59.6z"/>
	<path class="st6" d="M40.8,81.4L100,47l59.2,34.4L100,115.3L40.8,81.4z"/>
	<path class="st7" d="M100,115.3l59.2-33.9v67.9L100,183.6V115.3z"/>
	<path class="st8" d="M40.8,81.4l59.2,33.9v68.3l-59.2-34.4V81.4z"/>
</g>
</svg>
