<?xml version="1.0" encoding="utf-8"?>
<!-- Generator: Adobe Illustrator 23.0.1, SVG Export Plug-In . SVG Version: 6.00 Build 0)  -->
<svg version="1.1" id="Layer_1" xmlns="http://www.w3.org/2000/svg" xmlns:xlink="http://www.w3.org/1999/xlink" x="0px" y="0px"
	 viewBox="0 0 200 136.1" style="enable-background:new 0 0 200 136.1;" xml:space="preserve">
<style type="text/css">
	.st0{fill:none;stroke:#00979C;stroke-width:16.1215;}
	.st1{fill:none;stroke:#00979C;stroke-width:6.8311;}
	.st2{fill:none;stroke:#00979C;stroke-width:8.7439;}
	.st3{fill:#00979C;stroke:#00979C;stroke-width:0.2732;}
</style>
<title>Arduino Logo</title>
<path id="infinity" class="st0" d="M49.5,9.9c-26-2.1-47.8,28.6-37.1,52.4c10.4,25.8,49.5,32.8,68.1,12.1c18-17.6,25-44.7,46.9-58.6
	C149.8,0.6,186,15,190.2,42.2c4.3,26-23.8,51.4-49.3,43.7c-18.8-4.2-32.3-20.3-40-37.1C91.5,32.7,79.2,15.6,60,11
	C56.6,10.3,53,9.9,49.5,9.9z"/>
<path id="minus" class="st1" d="M34.2,46.8H67"/>
<path id="plus" class="st2" d="M134.8,46.8h27.3 M148.2,33.2v27.3"/>
<path id="A" class="st3" d="M24.9,134.3l-1.7-6.3H12.1l-1.8,6.3H4.4l9.4-31.8h8.4l9.4,31.8L24.9,134.3z M17.7,108.3l-4.2,14.8h8.3
	L17.7,108.3z"/>
<path id="R" class="st3" d="M51.2,134.3c-1.7-3.7-3.2-7.5-5-11.2c-1-1.6-3.1-2.2-4.9-1.9c-0.3,1.1-0.1,2.2-0.1,3.3
	c0,3.3,0,6.5,0,9.8c-2,0-4,0-6,0c0-10.6,0-21.2,0-31.8c4.5,0.1,9-0.3,13.5,0.3c2.9,0.5,6,2.2,6.8,5.2c1.1,3.2,0.5,7.4-2.3,9.5
	c-1.1,0.9-2.5,1.4-3.9,1.6c1.8,0.7,2.9,2.4,3.6,4c1.7,3.3,3.1,6.6,4.8,9.9c0.8,0.8,0.3,1.4-0.6,1.2
	C55.1,134.3,53.1,134.3,51.2,134.3z M49.7,111.9c0.2-2-1.4-4-3.4-4.1c-1.7-0.4-3.4-0.2-5.1-0.2c0,3,0,6,0,9c2.5,0,5.5,0.3,7.4-1.6
	C49.3,114,49.7,112.9,49.7,111.9L49.7,111.9z"/>
<path id="D" class="st3" d="M85.9,117.9c0,4.5-1,9.3-4.4,12.5c-3.3,3.1-7.9,3.9-12.3,3.8c-2.4,0-4.9,0-7.3,0c0-10.6,0-21.2,0-31.8
	c3.7,0,7.5-0.1,11.2,0.1c3.7,0.2,7.6,1.5,9.9,4.5C85.3,110.1,85.9,114.1,85.9,117.9z M79.5,118.3c-0.1-3.1-0.3-6.7-2.6-9
	c-2-1.9-4.9-2-7.5-1.9c-0.5,0-1,0-1.5,0c0,7.3,0,14.5,0,21.8c2.7,0,5.7,0.2,8-1.5C78.9,125.6,79.5,121.6,79.5,118.3z"/>
<path id="U" class="st3" d="M113.2,122.5c0.1,3.8-1.2,8.1-4.5,10.3c-3.8,2.4-8.8,2.4-13,1c-3.2-1.2-5.3-4.5-5.4-7.8
	c-0.4-3.8-0.1-7.7-0.2-11.5c0-4,0-8.1,0-12.1c2,0,4,0,6,0c0.1,7.6-0.1,15.1,0.1,22.7c0.2,2.1,1.7,4.3,3.9,4.6c2.3,0.5,5.3,0,6.4-2.3
	c1.3-2.8,0.7-5.9,0.8-8.8c0-5.4,0-10.7,0-16.1c2,0,4,0,6,0C113.2,109.1,113.3,115.9,113.2,122.5L113.2,122.5z"/>
<path id="I" class="st3" d="M118.9,107.2v-4.9H139v4.9h-7v22h7v4.9h-20.1v-4.9h7v-22H118.9z"/>
<path id="N" class="st3" d="M161.3,134.3c-3.4-7.7-7-15.3-10.3-23.1c0,7.7,0,15.4,0,23.1c-1.8,0-3.6,0-5.4,0c0-10.6,0-21.2,0-31.8
	c2.4,0,4.9,0,7.3,0c3.2,7.2,6.7,14.4,9.7,21.7c0.2,0.8,0.6,1.2,0.5,0.2c0-7.3,0-14.6,0-21.9c1.8,0,3.6,0,5.4,0c0,10.6,0,21.2,0,31.8
	C166.2,134.3,163.7,134.3,161.3,134.3L161.3,134.3z"/>
<path id="O" class="st3" d="M197.6,118.2c0,4.7-1,9.9-4.5,13.3c-3.6,3.5-9.2,4-13.7,2.3c-3.8-1.5-6-5.3-6.8-9.1
	c-0.8-4.2-0.9-8.7,0.2-12.9c1-3.9,3.5-7.7,7.4-9.1c3.7-1.3,8-1.2,11.4,0.8c3.7,2.2,5.3,6.6,5.7,10.7
	C197.6,115.5,197.6,116.8,197.6,118.2L197.6,118.2z M191.3,118.4c-0.1-3.1-0.2-6.6-2-9.2c-1.7-2.2-5-2.5-7.4-1.3
	c-2.6,1.6-3.2,4.9-3.4,7.7c-0.2,3.6-0.2,7.4,1.3,10.7c0.9,2.1,3.3,3.2,5.5,2.9c2.3,0,4.2-1.6,5-3.7
	C191.1,123.3,191.3,120.9,191.3,118.4z"/>
<path id="TM" class="st3" d="M186.8,5.4c0,0.2,0,0.4,0,0.6c0.5,0,0.9,0,1.4,0c0,1.2,0,2.5,0,3.7c0.2,0,0.5,0,0.7,0
	c0-1.2,0-2.5,0-3.7c0.5,0,0.9,0,1.4,0c0-0.2,0-0.4,0-0.6C189.2,5.4,188,5.4,186.8,5.4z M190.9,5.4c0,1.4,0,2.9,0,4.3
	c0.2,0,0.4,0,0.7,0c0-1.2,0-2.5,0-3.7c0.4,1.2,0.8,2.5,1.2,3.7c0.2,0,0.4,0,0.7,0c0.4-1.2,0.7-2.4,1.1-3.6c0,1.2,0,2.4,0,3.6
	c0.2,0,0.4,0,0.7,0c0-1.4,0-2.9,0-4.3c-0.3,0-0.7,0-1,0c-0.4,1.2-0.7,2.3-1.1,3.5c-0.4-1.2-0.7-2.3-1.1-3.5
	C191.6,5.4,191.2,5.4,190.9,5.4z"/>
</svg>
